<svg width="40" height="40" viewBox="0 0 40 40" fill="none" xmlns="http://www.w3.org/2000/svg">
<mask id="mask0_1719_1509" style="mask-type:alpha" maskUnits="userSpaceOnUse" x="0" y="0" width="40" height="40">
<rect width="40" height="40" fill="#D9D9D9"/>
</mask>
<g mask="url(#mask0_1719_1509)">
<path d="M20.0002 26.6668L26.6668 20.0002L20.0002 13.3335L17.6668 15.6668L20.3335 18.3335H13.3335V21.6668H20.3335L17.6668 24.3335L20.0002 26.6668ZM20.0002 36.6668C17.6946 36.6668 15.5279 36.2293 13.5002 35.3543C11.4724 34.4793 9.7085 33.2918 8.2085 31.7918C6.7085 30.2918 5.521 28.5279 4.646 26.5002C3.771 24.4724 3.3335 22.3057 3.3335 20.0002C3.3335 17.6946 3.771 15.5279 4.646 13.5002C5.521 11.4724 6.7085 9.7085 8.2085 8.2085C9.7085 6.7085 11.4724 5.521 13.5002 4.646C15.5279 3.771 17.6946 3.3335 20.0002 3.3335C22.3057 3.3335 24.4724 3.771 26.5002 4.646C28.5279 5.521 30.2918 6.7085 31.7918 8.2085C33.2918 9.7085 34.4793 11.4724 35.3543 13.5002C36.2293 15.5279 36.6668 17.6946 36.6668 20.0002C36.6668 22.3057 36.2293 24.4724 35.3543 26.5002C34.4793 28.5279 33.2918 30.2918 31.7918 31.7918C30.2918 33.2918 28.5279 34.4793 26.5002 35.3543C24.4724 36.2293 22.3057 36.6668 20.0002 36.6668ZM20.0002 33.3335C23.7224 33.3335 26.8752 32.0418 29.4585 29.4585C32.0418 26.8752 33.3335 23.7224 33.3335 20.0002C33.3335 16.2779 32.0418 13.1252 29.4585 10.5418C26.8752 7.9585 23.7224 6.66683 20.0002 6.66683C16.2779 6.66683 13.1252 7.9585 10.5418 10.5418C7.9585 13.1252 6.66683 16.2779 6.66683 20.0002C6.66683 23.7224 7.9585 26.8752 10.5418 29.4585C13.1252 32.0418 16.2779 33.3335 20.0002 33.3335Z" fill="#1C1B1F"/>
</g>
</svg>
