<svg width="40" height="40" viewBox="0 0 40 40" fill="none" xmlns="http://www.w3.org/2000/svg">
<mask id="mask0_1719_1503" style="mask-type:alpha" maskUnits="userSpaceOnUse" x="0" y="0" width="40" height="40">
<rect width="40" height="40" fill="#D9D9D9"/>
</mask>
<g mask="url(#mask0_1719_1503)">
<path d="M19.9987 26.6693L22.332 24.3359L19.6654 21.6693H26.6654V18.3359H19.6654L22.332 15.6693L19.9987 13.3359L13.332 20.0026L19.9987 26.6693ZM19.9987 36.6693C17.6931 36.6693 15.5265 36.2318 13.4987 35.3568C11.4709 34.4818 9.70703 33.2943 8.20703 31.7943C6.70703 30.2943 5.51953 28.5304 4.64453 26.5026C3.76953 24.4748 3.33203 22.3082 3.33203 20.0026C3.33203 17.6971 3.76953 15.5304 4.64453 13.5026C5.51953 11.4748 6.70703 9.71094 8.20703 8.21094C9.70703 6.71094 11.4709 5.52344 13.4987 4.64844C15.5265 3.77344 17.6931 3.33594 19.9987 3.33594C22.3043 3.33594 24.4709 3.77344 26.4987 4.64844C28.5265 5.52344 30.2904 6.71094 31.7904 8.21094C33.2904 9.71094 34.4779 11.4748 35.3529 13.5026C36.2279 15.5304 36.6654 17.6971 36.6654 20.0026C36.6654 22.3082 36.2279 24.4748 35.3529 26.5026C34.4779 28.5304 33.2904 30.2943 31.7904 31.7943C30.2904 33.2943 28.5265 34.4818 26.4987 35.3568C24.4709 36.2318 22.3043 36.6693 19.9987 36.6693ZM19.9987 33.3359C23.7209 33.3359 26.8737 32.0443 29.457 29.4609C32.0404 26.8776 33.332 23.7248 33.332 20.0026C33.332 16.2804 32.0404 13.1276 29.457 10.5443C26.8737 7.96094 23.7209 6.66927 19.9987 6.66927C16.2765 6.66927 13.1237 7.96094 10.5404 10.5443C7.95703 13.1276 6.66537 16.2804 6.66537 20.0026C6.66537 23.7248 7.95703 26.8776 10.5404 29.4609C13.1237 32.0443 16.2765 33.3359 19.9987 33.3359Z" fill="#1C1B1F"/>
</g>
</svg>
