<svg width="24" height="24" viewBox="0 0 24 24" fill="none" xmlns="http://www.w3.org/2000/svg">
<mask id="mask0_1676_991" style="mask-type:alpha" maskUnits="userSpaceOnUse" x="0" y="0" width="24" height="24">
<rect width="24" height="24" fill="#D9D9D9"/>
</mask>
<g mask="url(#mask0_1676_991)">
<path d="M12.0002 23.3L8.6502 20H4.0002V15.35L0.700195 12L4.0002 8.64995V3.99995H8.6502L12.0002 0.699951L15.3502 3.99995H20.0002V8.64995L23.3002 12L20.0002 15.35V20H15.3502L12.0002 23.3ZM12.0002 20.5L14.0002 18.5V14.8C13.5669 14.55 13.2085 14.1291 12.9252 13.5375C12.6419 12.9458 12.5002 12.2666 12.5002 11.5C12.5002 10.5333 12.7169 9.70828 13.1502 9.02495C13.5835 8.34162 14.1169 7.99995 14.7502 7.99995C15.3669 7.99995 15.896 8.34162 16.3377 9.02495C16.7794 9.70828 17.0002 10.5333 17.0002 11.5C17.0002 12.2833 16.8585 12.9708 16.5752 13.5625C16.2919 14.1541 15.9335 14.5666 15.5002 14.8V18H18.0002V14.5L20.5002 12L18.0002 9.49995V5.99995H14.5002L12.0002 3.49995L9.5002 5.99995H6.0002V9.49995L3.5002 12L6.0002 14.5V18H8.5002V14C8.06686 13.9 7.70853 13.6708 7.4252 13.3125C7.14186 12.9541 7.0002 12.5416 7.0002 12.075V7.99995H8.0002V11.775H8.7502V7.99995H9.7502V11.775H10.5002V7.99995H11.5002V12.075C11.5002 12.5416 11.3585 12.9541 11.0752 13.3125C10.7919 13.6708 10.4335 13.9 10.0002 14V18.5L12.0002 20.5Z" fill="#927C4E"/>
</g>
</svg>
