<svg width="56" height="56" viewBox="0 0 56 56" fill="none" xmlns="http://www.w3.org/2000/svg">
<g clip-path="url(#clip0_1676_852)">
<path d="M52.556 25.0128H50.5224C49.9835 20.0887 47.8942 15.626 44.7523 12.1239L47.4733 9.4029C47.9676 8.90947 47.9676 8.10734 47.4733 7.61392C46.9791 7.11965 46.1786 7.11965 45.6844 7.61392L42.9633 10.3349C39.4605 7.19303 34.9977 5.10294 30.0736 4.56481V2.53038C30.0736 1.13277 28.9408 0 27.5432 0C26.1456 0 25.0128 1.13277 25.0128 2.53038V4.56481C20.0895 5.10378 15.6268 7.19303 12.1239 10.3349L9.4029 7.61392C8.90863 7.11965 8.10819 7.11965 7.61392 7.61392C7.11965 8.10734 7.11965 8.90947 7.61392 9.4029L10.3349 12.1239C7.19303 15.6268 5.10294 20.0895 4.56481 25.0137H2.53038C1.13277 25.0137 0 26.1464 0 27.544C0 28.9417 1.13277 30.0744 2.53038 30.0744H4.56396C5.10294 34.9986 7.19219 39.4613 10.3341 42.9642L7.61307 45.6852C7.11881 46.1786 7.11881 46.9808 7.61307 47.4742C7.86021 47.7213 8.1841 47.8445 8.50799 47.8445C8.83188 47.8445 9.15576 47.7213 9.4029 47.4742L12.1239 44.7532C15.6268 47.8951 20.0895 49.9852 25.0137 50.5233V52.5569C25.0137 53.9545 26.1464 55.0872 27.544 55.0872C28.9417 55.0872 30.0744 53.9545 30.0744 52.5569V50.5233C34.9986 49.9843 39.4613 47.8951 42.965 44.7532L45.686 47.4742C45.9332 47.7213 46.2571 47.8445 46.581 47.8445C46.9048 47.8445 47.2287 47.7213 47.4759 47.4742C47.9701 46.9808 47.9701 46.1786 47.4759 45.6852L44.7549 42.9642C47.8968 39.4613 49.9868 34.9986 50.525 30.0744H52.5586C53.9562 30.0744 55.0889 28.9417 55.0889 27.544C55.0889 26.1464 53.9536 25.0128 52.556 25.0128ZM40.7122 16.1641C42.8335 18.6152 44.2732 21.6592 44.765 25.0128H31.8626L40.7122 16.1641ZM30.0736 23.2247V10.3214C33.428 10.8132 36.4721 12.253 38.9232 14.3751L30.0736 23.2247ZM25.0128 23.2238L16.1641 14.3751C18.6152 12.2538 21.6592 10.8132 25.0128 10.3223V23.2238ZM23.2238 25.0128H10.3223C10.8132 21.6584 12.2538 18.6152 14.3751 16.1641L23.2238 25.0128ZM23.2238 30.0736L14.3751 38.9232C12.2538 36.4721 10.814 33.428 10.3223 30.0744H23.2238V30.0736ZM25.0128 31.8634V44.765C21.6584 44.2732 18.6152 42.8335 16.1641 40.7122L25.0128 31.8634ZM30.0736 31.8626L38.9232 40.7122C36.4721 42.8335 33.428 44.2741 30.0736 44.7658V31.8626ZM31.8626 30.0736H44.7641C44.2732 33.428 42.8326 36.4712 40.7113 38.9223L31.8626 30.0736ZM47.9727 25.0128H47.3342C46.8188 20.9608 45.0855 17.285 42.5113 14.3641L42.96 13.9154C45.6481 16.9536 47.4522 20.7862 47.9727 25.0128ZM41.171 12.1273L40.7223 12.576C37.8014 10.0009 34.1256 8.26844 30.0727 7.75225V7.11459C34.3002 7.63501 38.1337 9.43917 41.171 12.1273ZM25.0128 7.11459V7.75225C20.9608 8.2676 17.285 10.0009 14.3641 12.5752L13.9154 12.1264C16.9527 9.43917 20.7862 7.63501 25.0128 7.11459ZM12.1264 13.9163L12.5752 14.365C10.0009 17.2859 8.2676 20.9608 7.75225 25.0137H7.11459C7.63501 20.7862 9.43917 16.9536 12.1264 13.9163ZM7.11459 30.0736H7.75309C8.26844 34.1256 10.0018 37.8014 12.576 40.7223L12.1273 41.171C9.43917 38.1337 7.63501 34.3002 7.11459 30.0736ZM13.9154 42.96L14.3641 42.5113C17.285 45.0863 20.96 46.8188 25.0128 47.3342V47.9718C20.7862 47.4522 16.9527 45.6481 13.9154 42.96ZM30.0736 47.9727V47.335C34.1264 46.8197 37.8022 45.0863 40.7231 42.5113L41.1718 42.96C38.1337 45.6481 34.3002 47.4522 30.0736 47.9727ZM42.96 41.171L42.5113 40.7223C45.0855 37.8014 46.8188 34.1264 47.3342 30.0736H47.9727C47.4522 34.3002 45.6481 38.1337 42.96 41.171Z" fill="url(#paint0_linear_1676_852)"/>
</g>
<defs>
<linearGradient id="paint0_linear_1676_852" x1="27.5445" y1="0" x2="27.5445" y2="55.0872" gradientUnits="userSpaceOnUse">
<stop stop-color="#106BD8"/>
<stop offset="0.519231" stop-color="#083872"/>
</linearGradient>
<clipPath id="clip0_1676_852">
<rect width="55.0872" height="55.0872" fill="white"/>
</clipPath>
</defs>
</svg>
