<svg width="29" height="28" viewBox="0 0 29 28" fill="none" xmlns="http://www.w3.org/2000/svg">
<path d="M25.9397 11.715H24.9999V11.6666H14.4999V16.3333H21.0933C20.1314 19.0498 17.5467 20.9999 14.4999 20.9999C10.6342 20.9999 7.49992 17.8657 7.49992 13.9999C7.49992 10.1342 10.6342 6.99992 14.4999 6.99992C16.2843 6.99992 17.9078 7.67309 19.1438 8.77267L22.4438 5.47275C20.3601 3.53084 17.5729 2.33325 14.4999 2.33325C8.057 2.33325 2.83325 7.557 2.83325 13.9999C2.83325 20.4428 8.057 25.6666 14.4999 25.6666C20.9428 25.6666 26.1666 20.4428 26.1666 13.9999C26.1666 13.2177 26.0861 12.4541 25.9397 11.715Z" fill="#FFC107"/>
<path d="M4.17822 8.56967L8.01131 11.3808C9.04847 8.81292 11.5603 6.99992 14.4997 6.99992C16.2841 6.99992 17.9076 7.67308 19.1436 8.77267L22.4436 5.47275C20.3599 3.53084 17.5727 2.33325 14.4997 2.33325C10.0186 2.33325 6.13239 4.86317 4.17822 8.56967Z" fill="#FF3D00"/>
<path d="M14.5003 25.6666C17.5138 25.6666 20.2519 24.5133 22.3222 22.6379L18.7113 19.5824C17.5007 20.5031 16.0213 21.0011 14.5003 20.9999C11.4658 20.9999 8.88918 19.065 7.91851 16.3647L4.11401 19.296C6.04485 23.0742 9.96601 25.6666 14.5003 25.6666Z" fill="#4CAF50"/>
<path d="M25.9398 11.7152H25V11.6667H14.5V16.3334H21.0934C20.6333 17.6263 19.8045 18.7561 18.7093 19.5832L18.7111 19.582L22.3219 22.6375C22.0664 22.8697 26.1667 19.8334 26.1667 14.0001C26.1667 13.2178 26.0862 12.4542 25.9398 11.7152Z" fill="#1976D2"/>
</svg>
