<svg width="29" height="28" viewBox="0 0 29 28" fill="none" xmlns="http://www.w3.org/2000/svg">
<path d="M20.9367 14.648C20.9258 12.7832 21.7707 11.3777 23.477 10.3414C22.5227 8.97422 21.0789 8.22227 19.1758 8.07734C17.3738 7.93516 15.4023 9.12734 14.6805 9.12734C13.9176 9.12734 12.173 8.12656 10.8004 8.12656C7.96758 8.17031 4.95703 10.3852 4.95703 14.8914C4.95703 16.223 5.20039 17.5984 5.68711 19.0148C6.33789 20.8797 8.68398 25.4488 11.1312 25.375C12.4109 25.3449 13.316 24.4672 14.9812 24.4672C16.5973 24.4672 17.434 25.375 18.8613 25.375C21.3305 25.3395 23.4523 21.1859 24.0703 19.3156C20.759 17.7543 20.9367 14.7438 20.9367 14.648ZM18.0629 6.3082C19.4492 4.66211 19.3234 3.16367 19.2824 2.625C18.0574 2.69609 16.641 3.45898 15.8344 4.39688C14.9457 5.40313 14.4234 6.64727 14.5355 8.05C15.859 8.15117 17.0676 7.47031 18.0629 6.3082Z" fill="black"/>
</svg>
