<svg width="56" height="58" viewBox="0 0 56 58" fill="none" xmlns="http://www.w3.org/2000/svg">
<path d="M27.6346 7.85139C28.1379 7.85297 28.6365 7.75519 29.1019 7.56365C29.5673 7.37212 29.9903 7.09061 30.3466 6.73525C30.703 6.3799 30.9857 5.9577 31.1785 5.49285C31.3714 5.02801 31.4705 4.52967 31.4704 4.02642C31.4704 1.92472 29.7579 0.202646 27.6346 0.202646C25.5114 0.202646 23.7989 1.92472 23.7989 4.02642C23.7989 4.52963 23.8982 5.0279 24.0911 5.49267C24.284 5.95744 24.5667 6.37958 24.923 6.7349C25.2793 7.09022 25.7023 7.37174 26.1676 7.56333C26.6329 7.75492 27.1314 7.85281 27.6346 7.85139ZM51.691 51.6913C50.5965 51.1812 49.404 50.916 48.1965 50.9141C46.9894 50.9192 45.7976 51.1842 44.7021 51.6913C43.6758 52.1427 42.525 52.4158 41.3202 52.4158C40.1155 52.4158 38.9503 52.1415 37.9216 51.6913C36.8665 51.2003 35.6762 50.9141 34.4295 50.9141C33.1829 50.9141 31.9901 51.2003 30.9351 51.6913C29.8646 52.1629 28.7086 52.4095 27.5388 52.4158C26.3687 52.409 25.2124 52.1625 24.1414 51.6913C23.0474 51.181 21.8553 50.9157 20.6481 50.9141C19.4414 50.9189 18.2499 51.184 17.1549 51.6913C16.0926 52.1636 14.9439 52.4103 13.7814 52.4158C12.6112 52.4103 11.4546 52.1637 10.3839 51.6913C9.32891 51.2003 8.13734 50.9141 6.8907 50.9141C5.64405 50.9141 4.45249 51.2003 3.39745 51.6913C2.32666 52.1634 1.17025 52.4104 0 52.417V57.4826C1.17085 57.4829 2.32858 57.236 3.39745 56.7581C4.45249 56.2671 5.64405 55.9809 6.8907 55.9809C8.13734 55.9809 9.32891 56.2671 10.3839 56.7581C11.4487 57.2357 12.6024 57.4827 13.7694 57.4827C14.9364 57.4827 16.0901 57.2357 17.1549 56.7581C18.2498 56.2507 19.4414 55.9856 20.6481 55.9809C21.8948 55.9809 23.0863 56.2671 24.1414 56.7581C25.21 57.2362 26.3675 57.4833 27.5382 57.4833C28.7089 57.4833 29.8664 57.2362 30.9351 56.7581C31.9901 56.2671 33.1829 55.9809 34.4295 55.9809C35.6762 55.9809 36.8665 56.2671 37.9216 56.7581C38.9503 57.2227 40.1155 57.4826 41.3202 57.4826C42.525 57.4826 43.6758 57.2227 44.7021 56.7581C45.7976 56.2511 46.9894 55.986 48.1965 55.9809C49.4432 55.9809 50.6336 56.2671 51.691 56.7581C52.7293 57.2227 53.8825 57.4826 55.0872 57.4826V52.417C53.9174 52.4106 52.7613 52.1635 51.691 51.6913ZM52.0072 0.051755C51.7317 -0.0572219 51.315 0.00984077 51.0946 0.215819L37.0629 14.3421C36.8438 14.2463 36.5528 14.3708 36.2917 14.3708H30.9914C30.086 13.1733 25.2922 8.49567 25.2922 8.49567C25.0467 8.24898 24.7306 8.02264 24.4156 7.94121C23.3199 6.98437 21.6625 6.95323 20.6074 8.00468L12.4066 16.2318C12.0917 16.5456 11.9755 16.9599 11.9755 17.4246V22.7537H0V25.1488H11.9755V38.9481C11.9755 40.6558 13.2545 42.0354 14.961 42.0354C16.6567 42.0354 17.9632 40.6558 17.9632 38.9481V25.1488H26.3461V43.112H0V46.7047H28.7412V25.1488H32.3338V22.7537H17.9632V21.7669L25.7174 14.0655L28.8825 17.312C29.2226 17.6665 29.716 17.9635 30.2237 17.9635H36.2905C37.3348 17.9635 38.3216 17.8042 38.3216 16.7659C38.3216 16.5192 38.4006 15.7875 38.3216 15.5684C41.6364 12.2632 50.2971 4.1354 51.4946 2.48278V46.7047H52.6922V0.734358C52.6922 0.433773 52.2802 0.175103 52.0072 0.051755Z" fill="url(#paint0_linear_1676_859)"/>
<defs>
<linearGradient id="paint0_linear_1676_859" x1="27.5436" y1="0" x2="27.5436" y2="57.4833" gradientUnits="userSpaceOnUse">
<stop stop-color="#106BD8"/>
<stop offset="0.519231" stop-color="#083872"/>
</linearGradient>
</defs>
</svg>
