<svg width="59" height="59" viewBox="0 0 59 59" fill="none" xmlns="http://www.w3.org/2000/svg">
<path d="M9.0116 54.179C3.06224 48.309 1.31696 41.0111 1.47557 37.2035L30.1099 30.1436L58.3496 37.2035C58.429 40.2178 57.7965 46.7225 50.4986 54.7343" stroke="#106BD8" stroke-width="1.11055"/>
<path d="M42.0905 26.3359V19.1681C42.0905 17.3878 41.0969 15.7563 39.5151 14.9393L34.396 12.2954" stroke="#106BD8" stroke-width="0.9519"/>
<path d="M17.6585 26.336V19.2503C17.6585 17.4271 18.6999 15.7642 20.3401 14.9683L25.1943 12.6128" stroke="#106BD8" stroke-width="0.9519"/>
<path d="M30.2134 0.00976562C34.098 0.206695 37.187 3.41898 37.187 7.35254L37.1772 7.73047C36.9803 11.6149 33.7688 14.7039 29.8354 14.7041L29.4565 14.6943C25.6973 14.5037 22.6833 11.4897 22.4927 7.73047L22.4829 7.35254C22.4829 3.29208 25.775 0 29.8354 0L30.2134 0.00976562ZM29.8354 1.26953C26.476 1.26953 23.7524 3.99304 23.7524 7.35254C23.7527 10.7118 26.4761 13.4346 29.8354 13.4346C33.1946 13.4343 35.9172 10.7117 35.9175 7.35254C35.9175 3.99319 33.1947 1.26977 29.8354 1.26953Z" fill="#106BD8"/>
<line x1="29.8749" y1="34.7443" x2="29.8749" y2="47.4363" stroke="#106BD8" stroke-width="0.9519" stroke-linecap="round"/>
<path d="M58.6693 57.59H58.6102C56.9863 57.59 55.3913 57.1603 53.9872 56.3444L52.838 55.6766C51.1714 54.7082 49.2211 54.3462 47.3179 54.652C46.3265 54.8114 45.372 55.1482 44.5002 55.6464L43.1211 56.4344C41.9764 57.0886 40.6856 57.4444 39.3674 57.4693C37.9314 57.4964 36.5154 57.1298 35.273 56.4092L33.9733 55.6553C33.4631 55.3594 32.924 55.1163 32.3644 54.9298L32.1691 54.8647C31.1276 54.5175 30.0232 54.4005 28.9321 54.5217C27.6757 54.6613 26.4728 55.1073 25.429 55.8205L25.0562 56.0753C23.2649 57.2993 21.0615 57.7634 18.9287 57.3657C18.0351 57.1991 17.1754 56.885 16.3848 56.4363L14.6439 55.4483L13.9493 55.1531C12.3434 54.4706 10.5552 54.3454 8.86992 54.7976C8.43703 54.9137 8.01842 55.0777 7.62181 55.2864L5.70905 56.2931C4.38759 56.9886 2.91671 57.3521 1.42339 57.3521H1" stroke="#106BD8" stroke-width="1.11055"/>
<line x1="36.5375" y1="22.3696" x2="36.5375" y2="26.0186" stroke="#106BD8" stroke-width="0.9519" stroke-linecap="round"/>
<line x1="23.2113" y1="22.3696" x2="23.2113" y2="26.0186" stroke="#106BD8" stroke-width="0.9519" stroke-linecap="round"/>
</svg>
