<svg width="57" height="56" viewBox="0 0 57 56" fill="none" xmlns="http://www.w3.org/2000/svg">
<path d="M8.61087 51.4701C2.95898 45.8935 1.30097 38.9605 1.45165 35.3433L28.6543 28.6364L55.482 35.3433C55.5574 38.2069 54.9565 44.3863 48.0235 51.9976" stroke="url(#paint0_linear_1676_827)" stroke-width="1.05502"/>
<path d="M52.8471 29.541V24.4242C52.8471 22.6718 51.8345 21.0772 50.2484 20.332L46.5923 18.614" stroke="url(#paint1_linear_1676_827)" stroke-width="0.904305"/>
<path d="M40.0364 25.0195V18.2101C40.0364 16.5188 39.0924 14.9689 37.5897 14.1928L32.7266 11.681" stroke="url(#paint2_linear_1676_827)" stroke-width="0.904305"/>
<path d="M16.8253 25.0191V18.2877C16.8253 16.5557 17.8147 14.9759 19.3729 14.2198L23.9844 11.9821" stroke="url(#paint3_linear_1676_827)" stroke-width="0.904305"/>
<path d="M4.16466 29.7662V24.2165C4.16466 22.4542 5.18861 20.8524 6.78815 20.1126L10.1934 18.5377" stroke="url(#paint4_linear_1676_827)" stroke-width="0.904305"/>
<path d="M43.0508 8.44055C46.3801 8.44067 49.0799 11.1396 49.0801 14.4689L49.0723 14.7794C48.9802 16.5966 48.0818 18.1998 46.7295 19.2433C46.7336 19.2343 46.7393 19.226 46.7432 19.2169C46.1599 18.9253 46.1412 18.8451 46.0723 18.2257C47.1701 17.3416 47.874 15.988 47.874 14.4689C47.8738 11.8055 45.7142 9.64672 43.0508 9.64661C40.4532 9.64681 38.3356 11.7003 38.2324 14.2726L37.0938 13.5353C37.5426 10.6493 40.039 8.44074 43.0508 8.44055Z" fill="url(#paint5_linear_1676_827)"/>
<path d="M28.3936 0C32.2509 0 35.3779 3.127 35.3779 6.98438C35.3779 10.8418 32.251 13.9688 28.3936 13.9688C24.5362 13.9687 21.4092 10.8418 21.4092 6.98438C21.4092 3.12704 24.5362 6.77759e-05 28.3936 0ZM28.3936 1.20605C25.2021 1.20612 22.6153 3.79295 22.6152 6.98438C22.6152 10.1759 25.2021 12.7636 28.3936 12.7637C31.5851 12.7637 34.1729 10.1759 34.1729 6.98438C34.1728 3.79291 31.585 1.20605 28.3936 1.20605Z" fill="url(#paint6_linear_1676_827)"/>
<path d="M8.73799 11.3209C10.3996 8.62085 13.9188 7.67607 16.7482 9.22398L17.0169 9.3799C18.7544 10.4476 19.7731 12.2688 19.8813 14.1788C19.5596 14.228 19.2163 14.2417 18.8478 14.1899L18.68 14.2707C18.5973 12.659 17.7015 11.1204 16.1693 10.282C13.8268 9.00054 10.9069 9.85347 9.64103 12.1668C8.5289 14.1997 9.05489 16.7006 10.7883 18.1468L10.7209 18.7645L10.0618 19.1085C7.86213 17.3092 7.17742 14.1571 8.583 11.5879L8.73799 11.3209Z" fill="url(#paint7_linear_1676_827)"/>
<line x1="28.4297" y1="33.0073" x2="28.4297" y2="45.0647" stroke="url(#paint8_linear_1676_827)" stroke-width="0.904305" stroke-linecap="round"/>
<path d="M55.7858 54.7108H55.7297C54.187 54.7108 52.6717 54.3025 51.3378 53.5274L50.2461 52.893C48.6628 51.973 46.81 51.6291 45.002 51.9197C44.0602 52.0711 43.1534 52.3911 42.3252 52.8643L41.015 53.613C39.9275 54.2344 38.7013 54.5725 37.449 54.5961C36.0848 54.6218 34.7396 54.2735 33.5593 53.589L32.3246 52.8729C31.8399 52.5917 31.3278 52.3607 30.7962 52.1835L30.6106 52.1217C29.6212 51.7919 28.572 51.6807 27.5355 51.7959C26.3419 51.9285 25.1991 52.3522 24.2076 53.0298L23.8534 53.2718C22.1517 54.4346 20.0584 54.8755 18.0323 54.4977C17.1833 54.3394 16.3666 54.0411 15.6156 53.6148L13.9617 52.6761L13.3019 52.3957C11.7762 51.7473 10.0775 51.6284 8.47642 52.058C8.06518 52.1683 7.6675 52.324 7.29071 52.5224L5.4736 53.4787C4.21821 54.1395 2.82087 54.4847 1.40222 54.4847H1" stroke="url(#paint9_linear_1676_827)" stroke-width="1.05502"/>
<line x1="34.7598" y1="21.2511" x2="34.7598" y2="24.7176" stroke="url(#paint10_linear_1676_827)" stroke-width="0.904305" stroke-linecap="round"/>
<line x1="22.1001" y1="21.2511" x2="22.1001" y2="24.7176" stroke="url(#paint11_linear_1676_827)" stroke-width="0.904305" stroke-linecap="round"/>
<line x1="8.9878" y1="24.5669" x2="8.9878" y2="28.0334" stroke="url(#paint12_linear_1676_827)" stroke-width="0.904305" stroke-linecap="round"/>
<line x1="48.1743" y1="24.5669" x2="48.1743" y2="28.0334" stroke="url(#paint13_linear_1676_827)" stroke-width="0.904305" stroke-linecap="round"/>
<defs>
<linearGradient id="paint0_linear_1676_827" x1="28.465" y1="28.6364" x2="28.465" y2="51.9976" gradientUnits="userSpaceOnUse">
<stop stop-color="#106BD8"/>
<stop offset="0.519231" stop-color="#083872"/>
</linearGradient>
<linearGradient id="paint1_linear_1676_827" x1="49.7197" y1="18.614" x2="49.7197" y2="29.541" gradientUnits="userSpaceOnUse">
<stop stop-color="#106BD8"/>
<stop offset="0.519231" stop-color="#083872"/>
</linearGradient>
<linearGradient id="paint2_linear_1676_827" x1="36.3815" y1="11.681" x2="36.3815" y2="25.0195" gradientUnits="userSpaceOnUse">
<stop stop-color="#106BD8"/>
<stop offset="0.519231" stop-color="#083872"/>
</linearGradient>
<linearGradient id="paint3_linear_1676_827" x1="20.4048" y1="11.9821" x2="20.4048" y2="25.0191" gradientUnits="userSpaceOnUse">
<stop stop-color="#106BD8"/>
<stop offset="0.519231" stop-color="#083872"/>
</linearGradient>
<linearGradient id="paint4_linear_1676_827" x1="7.17901" y1="18.5377" x2="7.17901" y2="29.7662" gradientUnits="userSpaceOnUse">
<stop stop-color="#106BD8"/>
<stop offset="0.519231" stop-color="#083872"/>
</linearGradient>
<linearGradient id="paint5_linear_1676_827" x1="43.0869" y1="8.44055" x2="43.0869" y2="19.2433" gradientUnits="userSpaceOnUse">
<stop stop-color="#106BD8"/>
<stop offset="0.519231" stop-color="#083872"/>
</linearGradient>
<linearGradient id="paint6_linear_1676_827" x1="28.3935" y1="0" x2="28.3935" y2="13.9686" gradientUnits="userSpaceOnUse">
<stop stop-color="#106BD8"/>
<stop offset="0.519231" stop-color="#083872"/>
</linearGradient>
<linearGradient id="paint7_linear_1676_827" x1="8.60832" y1="11.5416" x2="18.3944" y2="16.8963" gradientUnits="userSpaceOnUse">
<stop stop-color="#106BD8"/>
<stop offset="0.519231" stop-color="#083872"/>
</linearGradient>
<linearGradient id="paint8_linear_1676_827" x1="27.9775" y1="39.036" x2="26.9775" y2="39.036" gradientUnits="userSpaceOnUse">
<stop stop-color="#106BD8"/>
<stop offset="0.519231" stop-color="#083872"/>
</linearGradient>
<linearGradient id="paint9_linear_1676_827" x1="28.3929" y1="51.395" x2="28.3929" y2="55.0876" gradientUnits="userSpaceOnUse">
<stop stop-color="#106BD8"/>
<stop offset="0.519231" stop-color="#083872"/>
</linearGradient>
<linearGradient id="paint10_linear_1676_827" x1="34.3076" y1="22.9844" x2="33.3076" y2="22.9844" gradientUnits="userSpaceOnUse">
<stop stop-color="#106BD8"/>
<stop offset="0.519231" stop-color="#083872"/>
</linearGradient>
<linearGradient id="paint11_linear_1676_827" x1="21.6479" y1="22.9844" x2="20.6479" y2="22.9844" gradientUnits="userSpaceOnUse">
<stop stop-color="#106BD8"/>
<stop offset="0.519231" stop-color="#083872"/>
</linearGradient>
<linearGradient id="paint12_linear_1676_827" x1="8.53564" y1="26.3001" x2="7.53564" y2="26.3001" gradientUnits="userSpaceOnUse">
<stop stop-color="#106BD8"/>
<stop offset="0.519231" stop-color="#083872"/>
</linearGradient>
<linearGradient id="paint13_linear_1676_827" x1="47.7222" y1="26.3001" x2="46.7222" y2="26.3001" gradientUnits="userSpaceOnUse">
<stop stop-color="#106BD8"/>
<stop offset="0.519231" stop-color="#083872"/>
</linearGradient>
</defs>
</svg>
