<svg width="48" height="48" viewBox="0 0 48 48" fill="none" xmlns="http://www.w3.org/2000/svg">
<g clip-path="url(#clip0_1676_866)">
<path d="M39.8658 13.953H36.4014C37.5284 12.9596 38.423 11.7303 39.0217 10.3523C39.6205 8.97442 39.9086 7.48163 39.8658 5.97987C39.8658 5.45121 39.6558 4.94421 39.282 4.5704C38.9081 4.19658 38.4011 3.98658 37.8725 3.98658C37.3438 3.98658 36.8368 4.19658 36.463 4.5704C36.0892 4.94421 35.8792 5.45121 35.8792 5.97987C35.8792 11.2063 31.1531 13.0162 27.5592 13.6361C28.8857 11.2841 29.6842 8.67154 29.8993 5.97987C29.8993 4.39391 29.2693 2.8729 28.1479 1.75146C27.0264 0.63002 25.5054 0 23.9195 0C22.3335 0 20.8125 0.63002 19.6911 1.75146C18.5696 2.8729 17.9396 4.39391 17.9396 5.97987C18.1547 8.67154 18.9532 11.2841 20.2797 13.6361C16.6858 13.0162 11.9597 11.2063 11.9597 5.97987C11.9597 5.45121 11.7497 4.94421 11.3759 4.5704C11.0021 4.19658 10.4951 3.98658 9.96644 3.98658C9.43779 3.98658 8.93079 4.19658 8.55698 4.5704C8.18316 4.94421 7.97315 5.45121 7.97315 5.97987C7.93032 7.48163 8.21848 8.97442 8.81719 10.3523C9.41589 11.7303 10.3105 12.9596 11.4375 13.953H7.97315C5.85854 13.953 3.83054 14.793 2.33528 16.2883C0.840026 17.7836 0 19.8116 0 21.9262L0 23.9195C0 24.9768 0.420013 25.9908 1.16764 26.7384C1.91527 27.486 2.92927 27.906 3.98658 27.906V37.8725C3.98974 40.5148 5.04079 43.0479 6.90918 44.9163C8.77756 46.7847 11.3107 47.8358 13.953 47.8389H33.8859C36.5282 47.8358 39.0614 46.7847 40.9298 44.9163C42.7981 43.0479 43.8492 40.5148 43.8523 37.8725V27.906C44.9097 27.906 45.9237 27.486 46.6713 26.7384C47.4189 25.9908 47.8389 24.9768 47.8389 23.9195V21.9262C47.8389 19.8116 46.9989 17.7836 45.5036 16.2883C44.0084 14.793 41.9804 13.953 39.8658 13.953ZM23.9195 3.98658C24.4481 3.98658 24.9551 4.19658 25.3289 4.5704C25.7027 4.94421 25.9128 5.45121 25.9128 5.97987C25.6721 8.09839 24.9933 10.1437 23.9195 11.9856C22.8456 10.1437 22.1668 8.09839 21.9262 5.97987C21.9262 5.45121 22.1362 4.94421 22.51 4.5704C22.8838 4.19658 23.3908 3.98658 23.9195 3.98658ZM3.98658 21.9262C3.98658 20.8689 4.40659 19.8549 5.15422 19.1072C5.90185 18.3596 6.91585 17.9396 7.97315 17.9396H21.9262V23.9195H3.98658V21.9262ZM7.97315 37.8725V27.906H21.9262V43.8523H13.953C12.3671 43.8523 10.8461 43.2223 9.72462 42.1009C8.60317 40.9794 7.97315 39.4584 7.97315 37.8725ZM39.8658 37.8725C39.8658 39.4584 39.2358 40.9794 38.1143 42.1009C36.9929 43.2223 35.4719 43.8523 33.8859 43.8523H25.9128V27.906H39.8658V37.8725ZM25.9128 23.9195V17.9396H39.8658C40.9231 17.9396 41.9371 18.3596 42.6847 19.1072C43.4323 19.8549 43.8523 20.8689 43.8523 21.9262V23.9195H25.9128Z" fill="url(#paint0_linear_1676_866)"/>
</g>
<defs>
<linearGradient id="paint0_linear_1676_866" x1="23.9195" y1="0" x2="23.9195" y2="47.8389" gradientUnits="userSpaceOnUse">
<stop stop-color="#106BD8"/>
<stop offset="0.519231" stop-color="#083872"/>
</linearGradient>
<clipPath id="clip0_1676_866">
<rect width="47.8389" height="47.8389" fill="white"/>
</clipPath>
</defs>
</svg>
