<svg width="24" height="24" viewBox="0 0 24 24" fill="none" xmlns="http://www.w3.org/2000/svg">
<path d="M20.1146 24H3.88601C1.74322 24 0 22.2564 0 20.1129V3.88709C0 1.7436 1.74322 0 3.88601 0H20.1146C22.2568 0 24 1.7436 24 3.88709V20.1135C24 22.257 22.2568 24 20.1146 24ZM8.05328 4.96753H16.1066C16.928 4.96753 17.7159 5.29463 18.2968 5.87688C18.8776 6.45912 19.204 7.24882 19.204 8.07224V16.1445C19.204 16.9679 18.8776 17.7576 18.2968 18.3398C17.7159 18.9221 16.928 19.2492 16.1066 19.2492H8.05328C7.23179 19.2492 6.44395 18.9221 5.86307 18.3398C5.2822 17.7576 4.95586 16.9679 4.95586 16.1445V8.07224C4.95586 7.24882 5.2822 6.45912 5.86307 5.87688C6.44395 5.29463 7.23179 4.96753 8.05328 4.96753ZM8.05328 3.10471C6.7389 3.10471 5.47836 3.62807 4.54895 4.55966C3.61955 5.49125 3.09741 6.75477 3.09741 8.07224V16.1445C3.09741 17.4619 3.61955 18.7255 4.54895 19.657C5.47836 20.5886 6.7389 21.112 8.05328 21.112H16.1066C16.7574 21.112 17.4018 20.9835 18.0031 20.7339C18.6043 20.4842 19.1507 20.1183 19.6109 19.657C20.0711 19.1958 20.4361 18.6482 20.6852 18.0455C20.9342 17.4428 21.0624 16.7968 21.0624 16.1445V8.07224C21.0624 6.75477 20.5403 5.49125 19.6109 4.55966C18.6815 3.62807 17.4209 3.10471 16.1066 3.10471H8.05328ZM12.0799 16.4549C13.23 16.4549 14.333 15.997 15.1462 15.1819C15.9594 14.3667 16.4163 13.2611 16.4163 12.1084C16.4163 10.9556 15.9594 9.85 15.1462 9.03485C14.333 8.21971 13.23 7.76177 12.0799 7.76177C10.9298 7.76177 9.82686 8.21971 9.01363 9.03485C8.2004 9.85 7.74353 10.9556 7.74353 12.1084C7.74353 13.2611 8.2004 14.3667 9.01363 15.1819C9.82686 15.997 10.9298 16.4549 12.0799 16.4549ZM12.0799 14.5921C11.4227 14.5921 10.7925 14.3304 10.3278 13.8646C9.86305 13.3988 9.60198 12.7671 9.60198 12.1084C9.60198 11.4496 9.86305 10.8179 10.3278 10.3521C10.7925 9.88627 11.4227 9.62459 12.0799 9.62459C12.7371 9.62459 13.3674 9.88627 13.8321 10.3521C14.2968 10.8179 14.5578 11.4496 14.5578 12.1084C14.5578 12.7671 14.2968 13.3988 13.8321 13.8646C13.3674 14.3304 12.7371 14.5921 12.0799 14.5921ZM16.726 8.69318C17.0546 8.69318 17.3698 8.56234 17.6021 8.32944C17.8345 8.09654 17.965 7.78066 17.965 7.45129C17.965 7.12193 17.8345 6.80605 17.6021 6.57315C17.3698 6.34025 17.0546 6.20941 16.726 6.20941C16.3974 6.20941 16.0823 6.34025 15.85 6.57315C15.6176 6.80605 15.4871 7.12193 15.4871 7.45129C15.4871 7.78066 15.6176 8.09654 15.85 8.32944C16.0823 8.56234 16.3974 8.69318 16.726 8.69318Z" fill="#CEAF6E"/>
</svg>
