<svg width="57" height="9" viewBox="0 0 57 9" fill="none" xmlns="http://www.w3.org/2000/svg">
<path d="M52.6875 5.19557C52.8191 5.16946 52.4191 5.34931 52.7003 5.26639C52.6479 5.29829 52.5952 5.3306 52.5429 5.36277C52.5208 5.35016 52.4983 5.33759 52.4761 5.32462C52.5463 5.28136 52.6167 5.23836 52.6875 5.19548C52.6875 5.19551 52.6875 5.19554 52.6875 5.19557ZM52.6879 4.9117C52.6418 4.99437 52.4336 5.11145 52.687 5.05194C52.6976 5.02473 52.7087 4.99755 52.7195 4.97081C52.8065 4.94768 52.8935 4.9235 52.9797 4.89869C53.0059 4.87846 53.0321 4.85838 53.0585 4.8385C53.1079 4.85044 53.1566 4.8618 53.2053 4.87218C53.171 4.88407 53.1362 4.896 53.1019 4.90768C52.9832 4.99445 52.8721 5.05864 52.7 5.1505C52.7185 5.15048 52.737 5.1503 52.7555 5.15011C52.6618 5.18195 52.5679 5.21292 52.4739 5.24297C52.5448 5.19163 52.6244 5.13515 52.6906 5.08883C52.5551 5.09325 52.3651 5.21661 52.2655 5.27923C52.1297 5.36394 52.1505 5.32156 52.0495 5.38382C52.0333 5.39374 52.0406 5.41628 52.0074 5.43291C51.8402 5.51714 51.5077 5.66273 51.6763 5.51667C51.9571 5.39107 52.1778 5.23993 52.4574 5.1264C52.3624 5.1067 52.4989 5.02163 52.6879 4.9117ZM47.1987 5.78793C47.3055 5.75293 47.484 5.81913 47.5991 5.8846C47.5993 5.88463 47.5994 5.88466 47.5996 5.88469C47.6248 5.8993 47.6675 5.98375 47.5779 5.96111C47.4318 5.92445 47.3931 5.79354 47.2938 5.85423C47.2633 5.83193 47.2307 5.81071 47.1987 5.78793ZM46.8771 5.72234C46.7952 5.67229 46.862 5.59035 46.9676 5.64177C46.9677 5.6417 46.9677 5.64163 46.9677 5.64156C47.0118 5.66291 46.8994 5.71198 47.0885 5.67976C47.1072 5.74342 47.127 5.80143 47.1461 5.86215C47.1044 5.85395 47.0661 5.84712 47.0224 5.83832C47.0775 5.75337 46.959 5.77188 46.8771 5.72234ZM51.5468 5.61112C51.5528 5.66262 51.6077 5.63607 51.7137 5.62069C51.6253 5.66275 51.5369 5.70465 51.4488 5.74638C51.4813 5.70063 51.5137 5.65574 51.5468 5.61112ZM53.6228 4.6223C53.6229 4.62224 53.623 4.62217 53.6232 4.62211C53.6502 4.60381 53.6774 4.58556 53.7042 4.56772C53.7256 4.56923 53.7468 4.57064 53.7681 4.57184C53.8662 4.51327 53.9652 4.45528 54.064 4.39836C54.0628 4.43075 53.8778 4.51495 53.7859 4.58476C53.6326 4.64978 53.5527 4.66665 53.5316 4.6447C53.5619 4.6374 53.5922 4.63006 53.6228 4.6223ZM27.5091 5.74081C27.4526 5.80474 27.3965 5.86912 27.3398 5.93359C27.3796 5.97946 27.4211 6.01715 27.4599 6.06813C27.6748 5.78182 27.6107 6.06678 27.7849 6.08894C28.319 6.15595 28.31 5.64709 28.5881 6.46327C28.2214 6.33851 28.2769 6.70277 27.9801 6.90748C27.986 6.70063 28.3293 6.31553 28.2019 6.18707C27.8845 6.32814 27.5794 6.46322 27.2506 6.53301C27.2498 6.56961 27.2489 6.60629 27.248 6.64282C27.3003 6.63149 27.3521 6.62003 27.4042 6.60889C27.3294 6.68969 27.2557 6.77038 27.1795 6.85297C27.3006 6.65693 27.1051 6.73803 27.1925 6.50057C27.2315 6.39487 27.344 6.26244 27.4141 6.17024C27.3196 6.08771 27.2212 6.00861 27.1254 5.9262C27.2061 5.85396 27.2867 5.7821 27.3667 5.71073C27.4142 5.72014 27.461 5.73022 27.5085 5.73964C27.5087 5.74003 27.5089 5.74042 27.5091 5.74081ZM4.30583 8.14128C4.36836 7.65456 4.61087 7.52875 4.83004 8.00132C4.65513 8.04767 4.48071 8.09477 4.30583 8.14128ZM53.5124 4.62743C53.5293 4.62561 53.5456 4.62388 53.5624 4.62193C53.5015 4.6617 53.4405 4.70211 53.38 4.74292C53.3612 4.7337 53.342 4.72445 53.3227 4.71516C53.3858 4.68597 53.4493 4.65664 53.5124 4.62743ZM49.1234 6.11585C49.1749 6.1261 49.1791 6.12832 49.2412 6.14826C49.2411 6.14822 49.2411 6.14817 49.241 6.14813C49.2656 6.15606 49.4708 6.22526 49.4404 6.24413C49.3356 6.22003 49.2241 6.19345 49.117 6.16835C49.1186 6.15073 49.1226 6.13384 49.1234 6.11585ZM50.5247 6.07237C50.5248 6.07235 50.525 6.07234 50.5251 6.07232C50.5618 6.05873 50.598 6.0492 50.6349 6.03298C50.5176 6.12827 50.4719 6.07922 50.3597 6.15252C50.2476 6.22603 50.1892 6.29701 50.0512 6.25853C50.0834 6.2279 50.1163 6.19061 50.1489 6.15785C50.3334 6.11308 50.3654 6.05949 50.4887 5.96555C50.5007 6.0012 50.5127 6.03663 50.5247 6.07237ZM30.1908 6.93148C30.1729 6.75455 30.2613 6.9033 30.2658 6.90377C30.2658 6.90399 30.2657 6.9042 30.2657 6.90442C30.5173 6.647 30.2554 7.00943 30.5454 6.9344C30.5162 6.99018 30.4885 7.04819 30.4599 7.1047C30.371 7.04892 30.2766 6.98267 30.1908 6.93148ZM39.539 3.74375C39.533 3.77546 39.5276 3.80736 39.5217 3.83904C39.3488 3.78961 39.269 3.90325 39.1555 3.7556C39.2836 3.7507 39.4114 3.74667 39.5391 3.74338C39.539 3.7435 39.539 3.74362 39.539 3.74375ZM48.2743 5.78835C48.4761 5.80721 48.6222 5.83281 48.7949 5.92533C48.795 5.92543 48.7952 5.92552 48.7953 5.92562C48.8052 5.93107 48.7446 5.94929 48.7563 5.9607C48.796 5.96556 48.8376 5.96829 48.8779 5.9725C48.8762 5.99854 48.8742 6.02446 48.8725 6.05025C48.7652 6.01686 48.6579 5.98319 48.5503 5.94916C48.5622 5.9681 48.5746 5.98692 48.5866 6.0057C48.4913 5.99114 48.3962 5.97687 48.3007 5.9628C48.3454 5.92734 48.3898 5.89231 48.4338 5.85751C48.3806 5.83457 48.3273 5.81178 48.2743 5.78835ZM36.9673 4.12039C37.0095 4.14941 36.9745 4.23357 37.0316 4.25146C37.0884 4.26875 37.1515 4.16715 37.1657 4.28353C37.1077 4.31971 37.0474 4.35928 36.9885 4.39689C37.2556 4.52427 37.4038 4.27357 37.4825 4.51403C37.267 4.52199 37.1146 4.60787 36.9465 4.74525C36.8925 4.5448 37.0303 4.31065 36.8526 4.16743C36.8905 4.15204 36.93 4.13484 36.967 4.12096C36.9671 4.12077 36.9672 4.12058 36.9673 4.12039ZM56.1093 3.29174C56.2268 3.25342 56.4955 3.16395 56.6448 3.11728C56.6817 3.10631 56.8046 3.06927 56.804 3.06943C56.8009 3.07187 56.6548 3.12625 56.812 3.06959C56.7593 3.0891 56.7082 3.10812 56.6559 3.12756C56.666 3.12588 56.676 3.12406 56.6857 3.12224C56.7488 3.09739 56.8121 3.07266 56.8754 3.04811C56.8786 3.04713 56.8818 3.04614 56.885 3.04512C56.6579 3.13428 56.7924 3.08279 56.6759 3.13207C56.7842 3.08913 56.8929 3.04484 57 3C56.9382 3.02587 56.8652 3.05634 56.8107 3.07901C56.8042 3.08391 56.9337 3.02818 56.956 3.01883C57.0811 2.96528 56.4447 3.23915 56.3965 3.27076C56.4979 3.22634 56.604 3.17921 56.7073 3.13285C56.6779 3.14675 56.6482 3.16096 56.619 3.17515C56.384 3.2786 56.1198 3.39305 55.8431 3.50696C55.8185 3.51824 55.7939 3.52959 55.7698 3.54074C55.7791 3.5426 55.7881 3.54452 55.7974 3.54621C55.7605 3.56366 55.7231 3.58138 55.6863 3.59894C55.7884 3.53181 55.637 3.60138 55.4471 3.66821C55.5423 3.61881 55.6654 3.57135 55.652 3.56309C55.3181 3.71584 54.9141 3.86408 54.5922 4.01951C54.5125 4.05853 54.5248 4.08668 54.3328 4.16785C54.3379 4.16167 54.3365 4.15518 54.3388 4.14899C54.014 4.30615 53.8196 4.40773 53.468 4.53814C53.494 4.54395 53.5195 4.54972 53.5453 4.55504C53.6148 4.51533 53.6846 4.47591 53.754 4.43726C53.8128 4.43711 53.744 4.47965 53.9599 4.38126C54.1368 4.30068 54.0277 4.33967 54.0734 4.31203C54.1354 4.27491 54.1992 4.26448 54.2658 4.22442C54.3174 4.19375 54.2521 4.20473 54.3958 4.146C54.3467 4.18997 54.2972 4.23634 54.2488 4.28326C54.2126 4.29476 54.1765 4.30589 54.1401 4.31699C54.1725 4.29541 54.2044 4.27436 54.237 4.25317C54.1183 4.31854 54.0066 4.38143 53.885 4.45164C53.9123 4.39993 53.7864 4.47204 53.717 4.50892C53.609 4.5663 53.6937 4.49863 53.6227 4.5358C53.5516 4.57277 53.4853 4.63727 53.3517 4.69209C53.4148 4.64263 53.3126 4.67129 53.3243 4.6469C53.3361 4.62254 53.4746 4.55791 53.333 4.59973C53.0803 4.7266 53.3861 4.66329 53.2169 4.75242C53.0149 4.86238 52.919 4.7758 52.9718 4.72572C53.0135 4.68654 53.1851 4.61799 53.2278 4.58022C52.9091 4.67605 52.9333 4.74057 52.887 4.77627C52.7187 4.90577 52.791 4.72285 52.5866 4.86437C52.5802 4.83763 52.5741 4.8138 52.5682 4.78821C52.5312 4.80848 52.508 4.82506 52.4625 4.8479C52.6219 4.8404 52.5077 4.88475 52.4498 4.90938C52.3586 4.94797 52.51 4.91301 52.4885 4.92938C52.4305 4.97402 52.3246 5.01088 52.3972 5.00602C52.3645 5.00788 52.3293 5.01054 52.2958 5.01241C52.1943 5.06944 51.9959 5.29799 52.2217 5.1677C52.2178 5.22007 52.1331 5.23497 52.0708 5.25536C52.0085 5.27581 52.0216 5.3035 51.9672 5.32238C51.7506 5.39678 51.865 5.28383 51.8821 5.23146C51.6172 5.3796 51.8948 5.27759 51.5061 5.47447C51.4824 5.52619 51.6798 5.47724 51.5365 5.56758C51.4836 5.52197 51.3533 5.53031 51.1249 5.60665C51.1097 5.63053 51.0947 5.65467 51.0797 5.67886C50.9353 5.67432 50.9694 5.5831 50.7793 5.7563C50.8394 5.56469 50.7957 5.69068 50.5711 5.71769C50.5254 5.72294 50.6069 5.65394 50.5436 5.66248C50.5148 5.66622 50.4619 5.7149 50.3913 5.72324C50.357 5.72755 50.1881 5.7281 50.0999 5.79616C50.2042 5.83948 50.0428 5.98335 50.2299 5.97468C50.1259 6.01427 50.0348 6.05508 49.9717 6.08177L49.9348 6.09383L49.9127 6.08548C49.8055 6.05509 49.7798 6.04087 49.9277 6.03257L49.9361 6.03574L49.9502 6.03115C49.9698 6.01352 49.9939 5.99263 50.0229 5.96821C49.9912 5.97169 49.9595 5.97508 49.9278 5.97838L49.9433 5.9774C49.8977 5.94791 49.8522 5.91814 49.8067 5.88808C49.7461 5.89137 49.6849 5.89479 49.6237 5.89868C49.6347 5.82783 49.6486 5.81086 49.4282 5.75892C49.527 5.77012 49.6254 5.78152 49.7244 5.79389C49.7315 5.78113 49.7486 5.77091 49.7492 5.75667C49.6265 5.74699 49.2977 5.66002 49.2133 5.65569C49.1289 5.65141 49.2799 5.70217 49.2519 5.71393C49.0184 5.81306 49.0656 5.70412 48.9217 5.69151C48.8371 5.68499 49.0234 5.7566 48.9786 5.75126C48.8124 5.73222 48.7629 5.62594 48.6226 5.58383C48.6585 5.64799 48.694 5.71193 48.7291 5.77451C48.5815 5.73198 48.4164 5.68661 48.2739 5.66614C48.2179 5.65811 48.2479 5.70744 48.2384 5.70764C48.1908 5.70917 48.0058 5.68403 47.9868 5.67939C47.8441 5.64298 47.8557 5.58654 47.7183 5.54671C47.774 5.55634 47.8262 5.56565 47.8806 5.57527C47.9301 5.49204 47.9799 5.40963 48.0291 5.32761C47.8965 5.28116 47.7639 5.23455 47.631 5.18742C47.7207 5.24793 47.8111 5.30745 47.9013 5.36607C47.7264 5.39415 47.5504 5.42597 47.3735 5.46138C47.3058 5.39313 47.2389 5.32384 47.1719 5.25331C46.9497 5.20422 46.9371 5.41662 46.8827 5.21328C46.8139 5.21031 46.7451 5.2076 46.6762 5.20499C46.6926 5.182 46.709 5.159 46.7254 5.13615C46.6432 5.1301 46.561 5.1243 46.4785 5.11913C46.5344 5.2336 46.5878 5.35028 46.6447 5.45773C46.4848 5.43949 46.5037 5.36142 46.4862 5.33616C46.4399 5.26909 46.2992 5.30806 46.2645 5.24741C46.2529 5.22633 46.4183 5.21394 46.3833 5.1406C46.3761 5.12737 46.2383 4.84881 46.0961 4.8629C46.0869 4.90461 46.0826 4.95765 46.0752 5.00361C45.8953 4.98219 45.8693 4.7392 45.9095 4.68437C45.806 4.69999 45.6713 4.66443 45.6332 4.72738C45.5859 4.71558 45.539 4.70381 45.4917 4.69205C45.588 4.53838 45.3849 4.51012 45.3304 4.65361C45.4098 4.68029 45.4893 4.70712 45.5687 4.73365C45.4579 4.89276 45.6724 5.06805 45.209 4.76349C45.1382 4.64226 45.3786 4.8242 45.3191 4.73201C45.1928 4.65231 45.0536 4.65076 44.9417 4.54641C44.8028 4.41551 45.0263 4.39093 44.6168 4.38907C45.3768 4.89903 44.45 4.54007 44.0299 4.52362C44.001 4.21325 43.6974 4.0186 43.2161 3.97401C43.2398 4.07182 43.3958 4.06992 43.4709 4.12101C43.546 4.17172 43.4425 4.19524 43.535 4.26236C43.6276 4.32945 43.833 4.44077 43.9222 4.52456C43.8208 4.54505 43.3502 4.53957 43.6777 4.48523C43.4836 4.34788 43.406 4.23545 43.1427 4.14523C43.0253 4.25446 43.0078 4.3386 42.7446 4.27394C42.952 4.12953 42.6921 3.9177 42.8124 3.74142C42.9837 3.84148 42.8277 3.99829 42.9095 4.11746C42.918 4.12927 43.1036 4.13065 43.1427 4.14523C43.0153 3.93204 42.9739 3.84927 43.1361 3.68436C43.0091 3.66386 42.9403 3.61516 42.902 3.70752C42.8883 3.65824 42.8745 3.60865 42.8613 3.55905C42.8213 3.54765 42.7845 3.54034 42.7426 3.52639C42.7592 3.69067 42.6723 3.56569 42.5733 3.60811C42.4742 3.65116 42.5488 3.79969 42.3277 3.73725C42.3913 3.79363 42.4502 3.84275 42.5122 3.89564C42.3589 3.89322 42.2048 3.89201 42.0509 3.89179C42.1248 4.01271 42.3046 4.20543 42.2649 4.32287C42.2116 4.26087 41.9621 4.28402 41.9362 4.28155C41.8364 4.27026 41.9107 4.20597 41.904 4.20229C41.7637 4.12642 41.6319 4.12173 41.6085 3.98737C41.48 4.01192 41.4033 3.95913 41.2824 3.93096C41.2159 3.91548 41.2033 4.00876 41.1694 3.98184C40.9443 3.8022 41.2236 3.74406 40.6633 3.84322C40.705 3.92329 40.7458 4.00394 40.7878 4.08319C40.7247 4.09372 40.6618 4.10471 40.5986 4.11573C40.5642 4.095 40.5302 4.07419 40.4959 4.05331C40.5367 3.91227 40.5777 3.771 40.6185 3.63001C40.5797 3.61136 40.5406 3.59282 40.5018 3.57406C40.5762 3.57893 40.6506 3.58404 40.7248 3.58927C40.7382 3.5663 40.7512 3.54322 40.7646 3.5203C40.6711 3.45327 40.5783 3.38527 40.4854 3.31648C40.4693 3.36564 40.4531 3.41518 40.437 3.46437C40.2214 3.33071 40.2285 3.28416 39.9652 3.36347C39.7935 3.31438 39.5918 3.49331 39.4655 3.56052C39.4379 3.52208 39.4104 3.48308 39.3825 3.44419C39.3471 3.48203 39.3115 3.51978 39.276 3.55796C39.2584 3.51278 39.2406 3.46736 39.2229 3.42185L39.4733 3.41842C39.4492 3.40118 39.425 3.38389 39.401 3.36656C39.4157 3.48317 39.4193 3.53773 39.5143 3.54931L39.1855 3.55381C39.2046 3.56989 39.2304 3.58692 39.2645 3.60615C39.2367 3.64593 39.1972 3.66598 39.152 3.67233L39.5511 3.66687C39.4494 3.75601 39.2392 3.77154 39.1325 3.75975C39.0242 3.7478 39.0828 3.56436 39.0655 3.55077C39.007 3.50338 38.8675 3.60835 38.8317 3.60935C38.6799 3.61352 38.5852 3.65346 38.4495 3.66179C38.4231 3.66331 38.3248 3.58944 38.318 3.58822C38.2677 3.58655 38.1416 3.57548 38.1285 3.57816C37.4521 3.71687 38.2832 3.91487 37.6639 4.07467C37.6999 4.12588 37.7344 4.17705 37.77 4.22808C37.7255 4.24756 37.6805 4.26705 37.6361 4.28657C37.5632 4.25865 37.6056 4.14638 37.513 4.25718C37.4981 4.18318 37.4833 4.10922 37.469 4.03561C37.4309 4.09092 37.3946 4.1456 37.3556 4.2019C37.1973 3.98046 36.8844 4.01846 36.812 3.71324C36.7873 3.60915 36.9655 3.44299 36.8205 3.36839C36.7233 3.37363 36.8223 3.47638 36.7874 3.49366C36.5349 3.6177 36.4968 3.44161 36.402 3.51935C36.408 3.59826 36.4136 3.67907 36.4195 3.75922C36.3717 3.75 36.3238 3.74068 36.2755 3.73132C36.2816 3.78427 36.2874 3.83747 36.2935 3.89057C36.3331 3.88196 36.3776 3.87187 36.414 3.86421C36.4248 4.07179 36.0013 4.30636 36.1211 4.08356C36.17 3.99338 36.3079 3.98234 36.1543 3.77706C36.0432 3.847 35.9162 3.92325 35.7991 3.99635C35.7793 3.94705 35.7598 3.89753 35.74 3.84817C35.5778 3.93281 35.7981 4.08844 35.8315 4.19643C35.7932 4.21193 35.7544 4.22721 35.7161 4.24275C35.684 4.19874 35.6521 4.15206 35.6196 4.1096C35.6426 4.18862 35.6779 4.37866 35.5397 4.34814C35.4506 4.32752 35.5066 4.09049 35.3716 4.16276C35.4212 4.28367 35.52 4.41741 35.3731 4.50938C35.3166 4.3845 35.2573 4.27214 35.2021 4.13892C35.0423 4.32613 34.8878 4.15016 34.7003 4.37037C34.5811 4.50914 34.4858 4.91635 34.2254 4.42025C34.1124 4.43946 34.188 4.56041 34.1652 4.59998C34.0579 4.78803 33.8664 4.57099 33.8333 4.56423C33.623 4.52319 33.57 4.63648 33.3849 4.55918C33.4244 4.65762 33.4586 4.7517 33.4957 4.84795C33.5828 4.65509 33.6534 4.64223 33.8518 4.61591C33.7949 4.65531 33.738 4.69535 33.6812 4.73508C33.7169 4.81294 33.7524 4.89074 33.7875 4.96809C34.27 4.46704 34.2886 5.00305 33.8385 5.27724C33.7497 5.1412 33.6593 5.00525 33.5702 4.86705C33.3604 5.18592 33.166 5.03007 32.8316 5.08045C32.7919 5.08664 32.6821 5.2203 32.6243 5.24381C32.6255 5.2441 32.6267 5.24438 32.6278 5.24467C32.6374 5.40491 32.7087 5.45715 32.7561 5.58757C32.7293 5.61488 32.7025 5.64219 32.6758 5.66963C32.5727 5.59218 32.5716 5.50011 32.4385 5.57074C32.4893 5.66623 32.5398 5.7616 32.5905 5.85663C32.4381 5.91312 32.3026 5.83595 32.1746 5.93284C32.1865 5.88564 32.198 5.83853 32.2099 5.79154C31.8669 5.7963 31.9247 5.1049 31.783 5.48407C31.7512 5.43547 31.7196 5.38613 31.6878 5.33734C31.7814 5.29382 31.8753 5.25084 31.9686 5.20775C31.9472 5.13232 31.926 5.05718 31.9042 4.9819C31.8064 5.03569 31.7083 5.09061 31.6106 5.14496C31.6712 5.07103 31.7324 4.99736 31.7933 4.92435C31.6603 4.92438 31.5271 4.92388 31.3938 4.92287C31.6106 5.16433 31.4538 5.24839 31.5721 5.51644C31.2859 5.35421 31.0192 5.09322 30.7479 5.39267C30.6942 5.45227 30.7929 5.64205 30.529 5.45506C30.6742 5.76 30.4872 5.98459 30.6131 6.28121C30.6732 6.24488 30.7375 6.21328 30.7946 6.17451C30.6902 6.09311 30.5872 5.80557 30.6695 5.68574C30.7749 5.53345 31.0406 5.66883 30.933 5.35427C30.9934 5.35231 31.048 5.34534 31.106 5.34139C31.1082 5.42633 31.1111 5.51183 31.1138 5.59705C31.229 5.42613 31.3384 5.43712 31.4732 5.60863C31.3044 5.71177 31.1363 5.81526 30.968 5.91984C30.9991 5.92468 31.0306 5.92945 31.0616 5.93374C30.9872 6.18247 31.1896 6.32732 30.9469 6.45916C30.9192 6.3649 30.8911 6.27069 30.8632 6.17598C30.848 6.45755 30.5924 6.54529 30.765 6.80819C30.6601 6.74608 30.6265 6.69436 30.6323 6.86759C30.36 6.7178 30.1394 6.47576 30.1061 6.11284C30.0471 6.19183 29.9882 6.27138 29.9299 6.35117C30.0031 6.43027 30.076 6.50847 30.1489 6.58667C30.0853 6.60517 30.0215 6.62375 29.9578 6.64234L29.7106 6.69698L29.5811 6.64975C29.511 6.62933 29.4409 6.60896 29.3711 6.58877C29.4346 6.30297 29.6539 6.56815 29.6432 6.2972C29.6411 6.24271 29.5395 6.33206 29.5281 6.29876C29.4109 5.93798 29.6655 6.2432 29.67 5.99204C29.3915 5.83898 29.7379 5.50468 29.2372 5.72713C29.2486 5.64159 29.2598 5.55406 29.272 5.46906C29.1313 5.42359 29.0922 5.61432 28.9602 5.61617C28.8775 5.61768 28.8714 5.2578 28.7256 5.46095C28.699 5.49918 28.7317 5.94421 28.4364 5.84745C28.2073 5.77215 28.383 5.50636 28.2855 5.36807C28.1884 5.22797 27.79 5.56002 27.8317 5.0691C27.8806 5.1497 27.9553 5.20653 28.0146 5.27734C28.0687 5.19518 28.1217 5.11404 28.1751 5.03283C27.9771 5.10177 27.8425 4.91377 27.6715 5.09998C27.5398 4.70204 27.2073 4.94199 27.1711 5.34394C27.2594 5.30867 27.2245 5.12074 27.2978 5.25449C27.2842 5.34608 27.2714 5.4373 27.2579 5.5287C27.0869 5.47224 26.9656 5.44246 27.1184 5.19147C27.0932 5.17763 27.0683 5.16385 27.0432 5.14996C26.985 5.34613 26.9272 5.54325 26.8689 5.7396C26.8306 5.75367 26.7922 5.76761 26.7539 5.78182C26.7297 5.72928 26.7057 5.67605 26.6814 5.62255C26.8153 5.32008 26.9005 5.33359 26.6743 5.08257C26.644 5.19159 26.6134 5.30009 26.5831 5.40913C26.3907 5.21003 26.457 4.94092 26.1667 4.8715C26.4911 4.54866 26.4283 5.26077 26.6345 4.49468C26.6761 4.56102 26.718 4.6279 26.7597 4.6937C26.7979 4.5857 26.8361 4.47761 26.8739 4.36968C26.5638 4.33535 25.87 4.93909 25.8049 4.38854C25.7645 4.44224 25.7262 4.48811 25.6841 4.54651C25.5711 4.18943 25.3032 4.84571 25.2118 4.39787C25.2026 4.35053 25.4187 3.72075 25.157 3.66553C25.1406 3.75164 25.1056 3.89429 25.0821 4.00195C25.0406 3.93406 25 3.8636 24.9594 3.79413C24.9283 3.86927 24.8967 3.94431 24.8654 4.02018C24.9519 4.07805 25.0381 4.13608 25.1248 4.19342C25.0388 4.19738 24.9523 4.20143 24.8662 4.20578C24.9346 4.36262 24.9808 4.37638 24.8636 4.56316C24.7708 4.55086 24.6776 4.53937 24.5848 4.52728C24.5613 4.57744 24.5377 4.62828 24.5142 4.67854C24.5152 4.84734 24.5176 5.01219 24.5183 5.18209C24.3185 4.99452 24.1165 4.93612 24.0218 4.5751C24.0056 4.51398 24.1698 4.33499 23.911 4.46661C23.9377 4.35526 23.9564 4.26399 23.9804 4.16081C23.6423 4.40019 23.5829 4.28794 23.3794 3.98644C23.4937 4.24618 23.3779 4.06566 23.3033 4.1676C23.2521 4.23793 23.3724 4.25807 23.337 4.33646C23.3018 4.41386 23.06 4.70419 23.1799 4.77718C23.6815 4.18805 23.5522 5.01142 24.0497 4.79762C23.9635 4.86608 23.8767 4.9351 23.7902 5.00452C23.8044 5.06991 23.817 5.12903 23.8327 5.1983C23.6378 5.01203 23.727 5.12352 23.6048 5.2028C23.4825 5.28202 23.2866 5.32842 23.1634 5.32952C23.1246 5.3298 23.2037 5.18823 23.1256 5.15427C23.0725 5.13064 22.8589 5.31938 22.8955 5.04498C22.9195 4.86515 23.292 4.45351 22.9546 4.36554C22.9373 4.17827 23.0844 4.27442 23.0934 4.25489C23.1772 4.06134 23.012 3.85136 22.8745 3.98027C22.8631 3.99167 22.8958 4.17054 22.7968 4.21073C22.5616 4.30763 22.498 4.09593 22.4395 3.81159C22.347 4.0996 22.0879 4.40737 21.9126 4.2457C21.8792 4.32758 21.8462 4.41041 21.8126 4.49307C21.8566 4.45628 21.9003 4.42022 21.9442 4.38367C21.9645 4.44552 21.9909 4.49337 22.008 4.56415C21.7823 4.58436 21.6427 4.98549 21.5029 5.11211C21.0239 5.54709 21.5241 4.50665 21.6353 4.33656C21.6588 4.42347 21.6785 4.5185 21.7008 4.60853C21.7238 4.50405 21.7471 4.39873 21.7707 4.29364C21.2642 4.16591 21.8756 3.60091 21.6723 3.33688C21.4681 3.83069 21.2657 3.83334 21.1158 3.43763C21.0886 3.4329 21.0619 3.42622 21.0345 3.42215C21.0096 3.49694 20.9782 3.61314 20.9575 3.66128C20.6446 3.67355 20.8123 2.84898 20.806 2.76386C20.7777 2.38701 20.5561 2.83203 20.5192 2.82636C20.3647 2.79987 20.3785 2.57517 20.2112 2.62465C20.0311 2.67884 20.0918 2.87287 20.0055 3.00595C19.9365 3.11175 19.8094 3.09892 19.7264 3.20646C19.7731 3.11274 19.8215 3.02172 19.8683 2.92794C19.7453 2.74823 19.651 2.57823 19.4794 2.49255C19.0764 3.16998 19.239 1.87652 19.0362 2.90732C19.1893 3.02379 19.2543 3.1648 19.2775 3.44442C19.1556 3.44726 19.0338 3.44951 18.9117 3.45293C18.9087 3.33337 18.9145 3.21894 18.9062 3.09517C18.8048 3.24117 18.6939 3.21595 18.6033 3.20092L18.6925 3.20519C18.6516 3.21643 18.6156 3.22788 18.5947 3.2548C18.2848 3.65424 18.4703 4.05799 18.0155 3.4113C18.2451 3.2993 18.1867 2.95804 18.4343 2.96491C18.3414 2.73092 18.228 2.80049 18.2573 2.49625C18.0372 2.60437 18.1567 2.85413 18.106 3.10172C18.0623 3.3155 17.9077 3.35455 17.9611 3.61512C17.9206 3.47394 17.8845 3.33656 17.8441 3.19525C17.6942 3.2224 17.5441 3.24822 17.3943 3.27539C17.4324 3.11217 17.4705 2.94938 17.509 2.7883C17.4509 2.73881 17.3926 2.68935 17.3344 2.63945C17.0454 3.17476 16.2578 2.39502 16.5659 3.59254C16.3946 3.66254 16.3464 3.51392 16.2103 3.29871C16.2154 3.39337 16.2181 3.47241 16.225 3.57771C16.0937 3.49995 16.0651 3.86567 15.9484 3.79268C15.8319 3.72013 15.7501 3.39104 15.8304 3.95358C15.7376 3.80483 15.6497 3.68254 15.559 3.54373C15.5414 3.67821 15.5236 3.81156 15.5063 3.94591C15.4335 3.88978 15.3605 3.83366 15.2875 3.77695C15.3006 4.05316 15.0392 3.97954 14.9638 4.18193C14.8128 3.90649 14.6578 2.97733 14.4474 3.18117C14.4928 3.4116 14.5381 3.64128 14.5835 3.87152C14.5208 3.83272 14.458 3.79391 14.3948 3.75481C14.3786 3.67959 14.3629 3.60428 14.3467 3.52903C14.3786 3.54787 14.4101 3.56661 14.4421 3.58615C14.3962 3.46217 14.3508 3.33848 14.3051 3.21402C14.254 3.41717 14.2029 3.62144 14.1517 3.82682C14.289 3.95216 14.4263 4.07648 14.5632 4.1996C14.4509 4.39574 14.3237 4.24334 14.2333 4.45699C14.0717 4.15409 14.0794 3.95987 14.0634 3.60258C14.0287 3.63909 13.9933 3.67472 13.9586 3.71138C13.9252 3.35597 13.8223 3.15728 14.0602 3.14943C14.0272 3.05218 13.9947 2.95953 13.9614 2.85808C13.9258 2.87954 13.8867 2.7987 13.8512 2.84348C13.7546 2.96562 13.7722 3.59848 13.8169 3.81446C13.8404 3.92735 13.916 3.69112 13.9387 3.85227C13.9939 4.24458 13.7068 4.11685 14.1447 4.44133C14.0638 4.71272 14.0045 4.53086 13.8563 4.48363C13.8892 4.61248 13.9216 4.74047 13.954 4.86921C13.8809 4.82119 13.8076 4.77314 13.7344 4.7246C13.7078 4.03658 13.1984 3.85831 13.518 3.20059C13.3887 3.1896 13.2597 3.17814 13.1304 3.16498C13.1441 3.09132 13.1579 3.01847 13.1716 2.94504C13.2338 2.97358 13.2956 3.00143 13.3577 3.0289C13.2703 2.91201 13.1828 2.79532 13.0953 2.67732C12.9663 2.85731 12.9467 3.11022 12.9268 3.42295C13.145 3.61408 13.0349 3.32313 13.1658 3.24204C13.1931 3.4327 13.2293 3.60629 13.2509 3.80786C13.1113 3.42633 12.9226 3.75122 12.871 3.78028C12.7136 3.86694 12.7786 3.45514 12.6651 3.46473C12.5514 3.47393 12.4589 3.72957 12.3009 3.35349C12.3397 3.57213 12.3855 3.79741 12.4259 3.99553C12.2638 4.09701 12.2545 3.83187 12.2307 3.80123C11.8483 3.29446 11.7709 3.78539 11.4511 3.89797C11.5047 3.9603 11.5576 4.01565 11.6109 4.07339C11.4427 4.5888 11.5857 4.41624 11.8277 4.53367C11.6175 4.5219 11.5704 4.9461 11.4486 5.09379C11.3268 5.24122 11.0473 5.07868 10.9301 4.93066C11.0896 4.63009 11.3396 4.76421 11.5543 4.6512C11.4898 4.42827 11.432 4.23988 11.3627 3.99385C11.3058 4.49564 11.1713 4.18956 11.1149 4.13292C10.9492 3.96757 11.0238 4.38119 10.8671 3.94863C10.8965 4.10156 10.9208 4.23018 10.9485 4.37293C10.6617 4.35709 10.3167 4.13024 10.2349 4.73691C10.1549 4.36539 10.0812 4.00659 9.99727 3.62701C9.92801 3.9274 9.77848 3.65362 9.69098 3.73481C9.60396 3.81646 9.69321 4.11575 9.59783 4.25243C9.58017 4.27767 9.5031 4.09312 9.47456 4.24317C9.44542 4.3928 9.43067 5.49033 9.24944 4.56527C9.14982 4.57765 9.05044 4.55937 8.9509 4.55983C9.03634 4.49126 9.12214 4.42463 9.20726 4.35673C9.0885 4.14467 8.97017 3.93209 8.85104 3.71782C8.87505 3.92126 8.89967 4.12847 8.92369 4.32946C8.74873 4.61156 8.53507 4.30597 8.32946 4.42005C8.29518 4.43945 8.45003 4.82919 8.2705 4.75363C8.09105 4.67874 7.84131 3.9371 7.6146 4.27466C7.60316 4.29181 7.62101 4.89201 7.45297 4.50172C7.41475 4.41303 7.48647 4.26164 7.41414 4.14871C7.34175 4.03574 7.09343 3.97098 7.02598 3.6833C7.0459 3.78566 7.07843 3.88994 7.10318 3.99336C7.07201 4.04839 7.04047 4.10363 7.00878 4.15803C6.97428 3.97735 6.93944 3.79641 6.90509 3.61656C6.74918 4.0704 6.74994 4.78365 6.37485 4.60812C6.51468 4.85972 6.65448 5.11092 6.7934 5.35967C6.78755 5.16872 6.78158 4.97679 6.77542 4.78647C6.94281 4.83512 7.11042 4.8825 7.27758 4.92982C7.26736 4.71563 7.25685 4.50242 7.24674 4.28885C7.29246 4.3096 7.33764 4.3295 7.38334 4.35012C7.39875 4.50288 7.41394 4.65494 7.42896 4.80796C7.5039 4.75719 7.57884 4.7058 7.65343 4.65546C7.64007 5.57315 7.18093 4.65666 7.32936 5.40142C7.27316 5.29166 7.21673 5.18085 7.16029 5.06968C7.20616 5.4366 7.11429 5.34526 6.9738 5.31059C7.03434 5.48556 7.09753 5.65718 7.15582 5.8338C6.98583 5.60353 6.76481 5.6689 6.61661 5.59417C6.5515 5.56122 6.56377 5.28355 6.54125 5.25519C6.42511 5.10584 6.33613 5.60315 6.29467 5.5728C6.04682 5.39101 5.75724 4.5165 5.62744 5.14633C5.88984 5.25219 5.75013 5.21253 5.89034 5.52594C5.93429 5.6244 6.27696 5.78275 5.87722 5.75719C5.83061 5.75572 5.0276 5.2521 5.17521 4.7328C5.08817 4.9038 5.02989 5.09574 4.95423 5.27655C4.48499 4.0452 4.77591 5.22781 4.96114 5.87333C4.92026 5.88363 4.88204 5.89742 4.83944 5.9051C4.81248 5.19728 4.34267 5.22959 4.24605 5.61001C4.21356 5.73681 4.39825 5.93466 4.29502 6.06242C4.22895 6.02378 4.15264 5.97186 4.08226 5.92765C4.24621 6.35601 4.10183 6.5594 4.18131 7.01244C4.00214 6.6312 3.77122 5.78698 3.75332 5.31161C3.69335 5.51512 3.63303 5.71944 3.57356 5.92584C3.63458 6.0266 3.69595 6.12606 3.75688 6.22631C3.40819 5.99274 3.13467 6.72142 2.90725 5.76301C2.86864 5.77673 2.82944 5.78961 2.79083 5.80337C2.80641 5.96962 2.82248 6.13621 2.8381 6.30267C2.63415 6.19277 2.43021 6.08045 2.22579 5.96777C2.36854 5.83699 2.36687 5.59599 2.5674 5.75803C2.47042 5.57959 2.37193 5.39964 2.27595 5.21967C2.10941 5.77243 2.13278 6.1191 1.72567 6.03106C1.70734 6.02751 1.34528 5.64044 1.3281 5.59893C1.24986 5.41162 1.27043 5.11798 1.2336 5.02288C1.13103 4.75707 0.672257 4.11013 0.660843 4.00319C0.524492 2.69873 1.67456 2.55937 1.97511 2.45988C5.0984 1.46303 8.40573 1.97612 11.5907 1.46398C11.6234 1.45834 11.5829 1.30631 11.5958 1.29821C11.6767 1.25039 11.8032 1.47973 11.8371 1.48579C11.9096 1.49828 11.8342 1.28252 11.8846 1.2769C12.4066 1.22363 12.9201 1.29645 13.4356 1.20203C13.4691 1.19591 13.4633 1.36977 13.5179 1.33298C13.5458 1.31291 13.5981 1.04219 13.667 1.03103C13.9077 0.991883 14.1258 1.05253 14.3813 1.02074C14.521 1.00329 14.7349 1.00206 14.8908 0.981175C14.9597 0.971962 15.0122 0.84905 15.08 0.838042C15.1761 0.822505 15.1958 1.05703 15.2132 1.06983C15.2893 1.12549 15.2551 0.869733 15.3183 0.869204C15.4361 0.868994 15.4711 1.03758 15.6153 1.00689C15.7183 0.984507 15.9357 0.825649 16.0614 0.773046C16.4036 0.93317 16.7798 0.812279 17.0578 0.719055C17.2223 0.663767 17.2767 0.889189 17.3462 0.880535C17.5905 0.847967 17.7279 0.540498 17.957 0.507524C18.0498 0.494023 18.1426 0.499549 18.2351 0.513007L19.3159 0.564757C19.4941 0.680841 19.6543 0.833168 19.8482 0.907717C19.8935 0.925065 19.9359 0.725938 19.9821 0.736218C20.1533 0.774338 20.3753 0.811757 20.5159 0.889755C20.6726 0.976473 20.6585 1.27472 20.8355 1.27198C20.8875 1.27102 20.9668 1.03341 21.0545 1.02958C21.1942 1.02445 21.2758 1.28389 21.358 1.33694C21.4709 1.40914 21.4312 1.13002 21.5858 1.2185C21.5921 1.22223 21.5697 1.40386 21.6071 1.40738C21.7158 1.41845 21.7423 1.27913 21.8884 1.34318C21.9022 1.35009 22.0566 1.58062 22.0762 1.58768C22.1916 1.62945 22.4103 1.76438 22.4884 1.75318C22.7671 1.71409 22.6415 1.39773 22.7027 2.01511C22.8311 1.91168 22.9589 1.80724 23.0912 1.71159C22.9935 1.81014 23.211 2.07234 23.2327 2.06704C23.4107 2.02863 23.3756 1.78887 23.5608 1.88991C23.1735 2.28451 23.7955 2.03594 23.9118 2.06364C24.473 2.19129 24.9374 2.47692 25.487 2.65892C25.671 2.71967 25.9426 2.70852 26.1361 2.77742C26.1813 2.79302 26.1187 2.88645 26.158 2.9022C26.1973 2.91722 26.185 2.78443 26.2287 2.80616C26.4996 2.94444 26.6624 3.23564 26.9943 3.05228C26.9963 3.09574 26.9875 3.12654 26.9968 3.17658C27.2736 3.00722 27.5936 3.46991 27.7356 3.5631C27.9574 3.71051 28.0615 3.57254 28.2271 3.66316C28.4458 3.78381 28.7106 4.20039 28.6909 3.64978C28.8529 3.68805 29.0059 3.73615 29.153 3.83623C29.1694 3.84746 29.1234 3.96813 29.1298 3.97309C29.17 4.00609 29.2148 3.89947 29.2466 3.90471C29.3328 3.91889 29.1622 4.00673 29.2898 4.0091C29.3573 4.01003 29.4186 3.92527 29.5912 3.98203C29.8055 4.05271 30.023 4.12663 30.2426 4.20267L29.2007 4.22316C30.0722 4.01571 30.9866 3.81711 31.8565 3.61607C31.9317 3.59862 31.8499 3.50686 31.946 3.49083C32.2804 3.43637 32.9176 3.46212 33.1914 3.3686C33.4656 3.27622 33.3574 3.14908 33.5153 3.04755C33.5458 3.0279 33.5431 3.11532 33.5743 3.10913C33.784 3.06702 34.0696 3.13082 34.2428 3.10729C34.3574 3.09206 34.31 2.97123 34.3843 2.94385C34.4951 2.90358 34.6515 2.99764 34.7138 2.98621C35.0063 2.9317 35.1737 2.78663 35.4575 2.76959C35.4389 2.74644 35.4245 2.72429 35.4077 2.70106C35.7271 2.62804 36.0461 2.55494 36.3654 2.48155C36.3434 2.46269 36.3217 2.44346 36.2996 2.42414C36.6771 2.3472 36.7097 2.59786 36.5176 2.09696C36.5393 2.07285 36.5617 2.04561 36.5827 2.02335C36.654 2.28763 36.9397 2.42405 37.2464 2.41627C37.2688 2.41542 37.3329 2.13396 37.4086 2.42905C37.4231 2.3485 37.4297 2.29409 37.4414 2.22415C37.5296 2.29713 37.6181 2.36806 37.7057 2.43907C37.7344 2.41769 37.7636 2.3967 37.7923 2.37545C37.7796 2.31822 37.7576 2.26101 37.751 2.20345C37.9006 2.15783 38.234 2.1486 38.3519 2.11143C38.5762 2.04063 38.781 1.8965 38.9908 1.87687L39.2208 1.78257L39.663 1.86767C39.72 1.89763 39.7711 1.93736 39.8138 1.99157C39.9283 2.01444 39.8481 1.8737 40.0078 1.94462C40.0117 2.00266 40.0152 2.05801 40.0195 2.11756C40.2181 1.93517 40.2063 2.08539 40.3765 2.19575C40.4916 2.2706 40.5882 2.24431 40.7033 2.29617C40.7324 2.30933 40.7099 2.37244 40.731 2.37739C40.8016 2.39407 41.0221 2.37425 41.0711 2.38915C41.5158 2.52008 41.8892 2.66319 42.3006 2.83081C42.3449 2.84872 42.3031 2.77057 42.3488 2.78942C42.4223 2.81967 42.3534 2.89243 42.3955 2.91182C42.5131 2.96518 42.5401 2.8732 42.7097 2.92803C43.2678 3.10928 43.8865 3.39874 44.4647 3.60511C44.4828 3.61142 44.495 3.5642 44.5148 3.57069C44.6435 3.61389 44.7557 3.72165 44.8725 3.76126C45.0662 3.82729 45.229 3.81582 45.4196 3.88375C45.7921 4.01606 46.1168 4.16324 46.5001 4.29892C46.8138 4.41027 47.0879 4.50079 47.4321 4.6218C48.3031 4.92678 49.1937 5.20253 50.0777 5.50291L49.735 5.52448C50.372 5.29087 51.0139 5.06814 51.6576 4.85955C51.6966 4.84696 51.6878 4.86879 51.6993 4.86396C51.8079 4.81752 51.809 4.79295 51.8677 4.82375C52.006 4.76428 52.0373 4.71623 52.2105 4.65903C52.3028 4.62848 52.2546 4.70003 52.3991 4.62094C52.5298 4.54996 52.365 4.57981 52.7925 4.4601C52.8038 4.45703 52.869 4.46371 52.9527 4.4265C53.0369 4.38959 52.9285 4.40667 53.1361 4.32923C53.6244 4.14924 54.2555 3.95201 54.8259 3.74937C54.8616 3.73652 55.2047 3.61131 55.2721 3.58585C55.4023 3.53602 55.3715 3.538 55.5433 3.47954C55.6762 3.43469 55.7888 3.40483 55.9447 3.35133C55.9629 3.34508 55.9911 3.32954 56.1093 3.29174ZM26.837 5.91473C26.7595 6.07055 26.5353 6.66412 26.3838 6.43361C26.3696 6.41138 26.5858 6.01593 26.4931 5.92212C26.6135 5.90423 26.7228 5.91594 26.8371 5.91409C26.8371 5.91431 26.837 5.91452 26.837 5.91473ZM56.9643 3.01694C56.8247 3.08314 56.6844 3.14914 56.5444 3.2145C56.6404 3.16797 56.7368 3.12209 56.833 3.07715C56.8771 3.05747 56.9206 3.03752 56.9643 3.01694ZM38.9773 3.75839C38.9774 3.75834 38.9776 3.75829 38.9777 3.75824C38.8391 3.85878 38.7008 3.96063 38.563 4.06356C38.5679 4.02225 38.5729 3.98088 38.5779 3.93976C38.6814 3.84147 38.7854 3.74431 38.8892 3.64833C38.9186 3.68514 38.948 3.72181 38.9773 3.75839ZM39.9645 3.39927C40.0536 3.46503 40.0107 3.52356 40.0479 3.60128C40.0479 3.60116 40.048 3.60104 40.048 3.60092C40.0579 3.62119 40.1217 3.65309 40.1473 3.66229C40.149 3.61941 40.1478 3.57623 40.1487 3.53329C40.4091 3.50147 40.7722 3.95474 40.1379 3.94777C40.1612 3.8991 40.184 3.85068 40.2072 3.80218C39.9075 3.74388 39.6114 3.54494 39.9645 3.39927ZM24.3854 5.60996C24.0457 5.87153 23.9449 5.92536 23.6985 5.6296C23.7669 5.5468 23.8353 5.46438 23.9036 5.3823C23.9287 5.4889 23.9537 5.59434 23.979 5.70009C23.9791 5.70012 23.9793 5.70015 23.9794 5.70019C24.0162 5.60387 24.0531 5.50748 24.0894 5.41125C24.1878 5.47783 24.2868 5.54417 24.3854 5.60996ZM49.5461 6.04817C49.5735 6.2172 49.5782 6.12377 49.3678 6.10801C49.2949 6.10283 49.355 6.14665 49.3104 6.14056C49.0694 6.1092 49.0811 5.99722 49.1488 5.95523C49.2816 5.98589 49.4155 6.01741 49.5457 6.04806C49.5458 6.0481 49.546 6.04813 49.5461 6.04817ZM55.3561 3.72745C55.3562 3.72739 55.3563 3.72733 55.3565 3.72727C55.3655 3.73246 55.2781 3.77472 55.3809 3.73704C55.3051 3.77148 55.2294 3.80588 55.1533 3.84048C55.1752 3.8295 55.1977 3.81836 55.2197 3.80743C55.1987 3.81343 55.1777 3.81931 55.1566 3.82511C55.134 3.8474 55.1065 3.85297 55.0252 3.88502C55.0522 3.88681 55.0789 3.88827 55.1055 3.88928C55.0122 3.92909 54.9182 3.96855 54.8244 4.00739C54.8219 4.00466 54.8193 4.00193 54.8168 3.99919C54.7838 4.01929 54.7512 4.03947 54.7183 4.05997C54.7071 4.06028 54.6963 4.06041 54.6851 4.06062C54.6444 4.08299 54.6038 4.10556 54.5633 4.12831C54.546 4.12359 54.6367 4.07675 54.4736 4.15443C54.5192 4.12023 54.565 4.08678 54.6116 4.05375C54.8598 3.94524 55.108 3.83648 55.3561 3.72745ZM47.7104 5.62754C48.0016 5.69419 47.9123 5.70143 47.8193 5.77605C47.783 5.72713 47.7464 5.67757 47.7104 5.62754ZM33.1622 5.36913C33.1299 5.55574 33.0973 5.74252 33.0623 5.92745C32.9242 6.07713 32.6646 5.83854 32.7539 5.6793C32.8619 5.48959 33.0685 5.59063 33.1622 5.36913ZM29.0483 6.39607C29.2345 6.53467 28.9775 6.70688 28.8949 6.82602C28.893 6.60409 28.8071 6.60267 28.6836 6.54697C28.8095 6.56238 29.0177 6.37243 29.0485 6.39547C29.0484 6.39567 29.0484 6.39587 29.0483 6.39607ZM36.5093 4.43151C36.5899 4.39951 36.6596 4.33395 36.7473 4.35528C36.7659 4.49276 36.5825 4.42493 36.7476 4.582C36.6964 4.60363 36.6451 4.62521 36.5944 4.64712C36.6021 4.55494 36.5389 4.51013 36.5096 4.43188C36.5095 4.43176 36.5094 4.43164 36.5093 4.43151ZM44.883 5.00123C44.7443 4.86778 44.7023 4.89808 44.5176 4.9227C44.5162 4.8391 44.7502 4.76128 44.8813 4.76711C44.8816 4.84546 44.8821 4.92351 44.883 5.00123ZM6.35317 6.66785C6.32425 6.2542 6.61096 6.14598 6.77789 6.23627C6.77053 6.2992 6.76326 6.36299 6.75607 6.42694C6.62188 6.50675 6.48721 6.58718 6.35317 6.66785ZM28.6258 6.51699C28.6458 6.52877 28.6651 6.5386 28.6836 6.54697C28.6613 6.54416 28.6414 6.53534 28.6258 6.51699ZM20.1757 3.13254C20.3181 2.87848 20.1395 2.7287 20.3575 2.90623C20.3576 2.90597 20.3576 2.90571 20.3577 2.90545C20.502 3.02226 20.5331 3.05096 20.6788 3.11476C20.5307 3.44568 20.1884 3.489 20.5941 3.67387C20.5996 3.67569 20.6442 3.46655 20.7044 3.51317C20.7229 3.52765 20.7443 3.71448 20.8332 3.79027C20.862 3.81476 21.096 3.93156 20.7571 3.84599C20.7022 4.08875 20.6183 4.3272 20.5561 4.5605C20.405 4.59673 20.4309 4.09907 20.2879 4.07468C20.0754 4.03968 19.8383 4.49889 19.9703 3.85247C20.1872 3.74091 20.4871 3.81721 20.4244 4.20397C20.5924 4.2505 20.7238 3.95611 20.6291 3.76769C19.994 3.8096 20.5941 3.26367 20.0177 3.37538C19.9877 3.46242 19.9409 3.55235 19.9216 3.63662C19.8506 3.2826 20.1249 3.22309 20.1757 3.13254ZM21.2121 4.12413C21.0625 4.27903 20.9123 4.43698 20.7621 4.59565C20.8425 4.29829 20.9701 4.04502 21.1737 3.92038C21.1862 3.98863 21.1993 4.05681 21.2121 4.12413ZM12.8526 4.61054C12.8721 4.81518 12.8643 5.00782 12.8685 5.20606C12.8087 5.04277 12.0444 5.01674 12.3902 4.77717C12.4406 4.74335 12.8333 5.03869 12.8526 4.61054ZM46.049 5.21089C45.9729 5.15577 45.8974 5.09994 45.8221 5.04342C45.9589 5.05647 46.0957 5.06973 46.2322 5.08387C46.1712 5.1255 46.1104 5.16793 46.049 5.21089ZM31.7365 5.62218C31.7733 5.61485 31.7043 5.80888 31.8361 5.73858C31.7632 5.87197 31.6924 5.98901 31.6207 6.1179C31.5671 6.05396 31.5132 5.99017 31.4595 5.9257C31.4507 5.98139 31.4415 6.03708 31.4328 6.09304C31.4129 5.97938 31.3924 5.86894 31.3728 5.75352C31.617 5.93035 31.5738 5.65399 31.7365 5.62218ZM36.7315 3.64255C36.8206 3.81848 36.6069 4.0093 36.8606 3.96061C36.8525 4.09767 36.7983 4.18676 36.6592 4.24527C36.6215 4.20556 36.5839 4.16602 36.5461 4.12599C36.5827 4.2541 36.5608 4.31332 36.5093 4.43151C36.5092 4.43139 36.5091 4.43127 36.5089 4.43115C36.2955 4.51385 36.2951 4.46684 36.1763 4.27132C36.4436 4.31572 36.3898 4.11962 36.5115 3.95664C36.5951 3.84474 36.747 3.83546 36.7315 3.64255ZM13.6369 4.46167C13.5274 4.83802 13.7332 5.13361 13.3726 4.82211C13.3768 4.73014 13.3813 4.63902 13.3855 4.54728C13.4691 4.51781 13.553 4.48939 13.6369 4.46167ZM37.7307 4.00977C37.6258 3.74008 37.404 3.57045 37.5204 4.03419C37.6979 4.07622 37.5452 3.84476 37.7307 4.00977ZM29.2886 5.78933C29.5744 5.8882 29.3993 6.31741 29.2182 6.51217C29.2216 6.42603 29.2252 6.33957 29.229 6.25371C29.1678 6.27769 29.1064 6.30194 29.0452 6.32581C29.1265 6.14654 29.2077 5.96739 29.2886 5.78933ZM42.6568 4.06454C42.3923 4.15247 42.8741 4.21093 42.6925 4.26111C42.5471 4.30256 42.4255 4.10979 42.5142 4.03189C42.5579 4.04103 42.6062 4.05232 42.6564 4.06442C42.6566 4.06446 42.6567 4.0645 42.6568 4.06454ZM41.3572 3.75721C41.3452 3.93863 41.3067 3.87427 41.4915 3.89037C41.5441 3.89523 41.926 4.06394 41.7974 3.88108C41.6548 3.84243 41.5049 3.79914 41.3572 3.75721ZM25.7898 5.36845C25.8275 5.2184 26.2225 4.9767 26.24 5.0686C26.2401 5.06838 26.2401 5.06816 26.2402 5.06794C26.2875 5.31552 25.9541 5.26214 26.0134 5.6009C25.773 5.2543 25.5038 5.88054 25.7574 5.02844C25.9511 5.03994 25.8166 5.19293 25.7898 5.36845ZM2.26823 6.203C2.26808 6.20302 2.26794 6.20305 2.26779 6.20307C2.291 6.21205 2.5299 6.56666 2.53148 6.70382C2.30383 6.62845 2.29745 6.36552 2.17485 6.8212C2.14125 6.68799 2.10986 6.55849 2.07525 6.42428C2.1386 6.33008 2.15377 6.16043 2.26823 6.203ZM11.9813 4.31779C12.0483 4.24774 12.2282 4.45856 12.3131 4.42887C12.1888 5.38208 11.7139 4.59959 11.9813 4.31779ZM52.6885 4.91134C52.6883 4.91146 52.6881 4.91158 52.6879 4.9117C52.688 4.91163 52.688 4.91155 52.6881 4.91148C52.6882 4.91143 52.6884 4.91139 52.6885 4.91134ZM18.0035 3.75875C17.9849 3.70931 17.9717 3.66576 17.9631 3.62701C17.9625 3.62333 17.9618 3.61965 17.9612 3.61597C17.9747 3.66304 17.9886 3.71057 18.0035 3.75875ZM25.1365 5.24981C25.0656 5.00433 25.5828 4.78356 25.699 4.90121C25.6636 4.99366 25.6388 5.07941 25.5868 5.18279C25.5421 4.90622 25.1486 5.28976 25.1365 5.24981ZM35.0081 4.64997C34.6744 4.75271 34.9273 4.0393 35.0886 4.49186C35.0906 4.50079 35.0164 4.64625 35.0081 4.64997ZM27.8267 5.84988C27.9753 5.64101 27.8191 5.53386 28.0845 5.64744C28.0845 5.71131 28.0844 5.77523 28.0845 5.83891C27.9987 5.84226 27.9126 5.84613 27.8267 5.84988ZM32.5738 4.52989C32.1843 4.75666 31.8436 5.07542 32.2857 5.52966C32.3119 5.50204 32.3388 5.4749 32.365 5.4474C32.2877 5.18366 32.4496 5.29 32.6233 5.24356C32.6155 5.13291 32.7032 5.07943 32.6938 4.98704C32.6759 4.80877 32.5291 4.72298 32.5738 4.52989ZM50.4997 5.72427C50.4981 5.73866 50.4967 5.7531 50.4951 5.76745C50.4368 5.80786 50.3784 5.84867 50.3204 5.88987C50.3209 5.86229 50.3215 5.83482 50.322 5.80746C50.3812 5.77966 50.4401 5.75204 50.4993 5.72437C50.4994 5.72434 50.4995 5.7243 50.4997 5.72427ZM21.8416 3.43661C21.6115 4.1346 21.7824 4.03728 22.151 3.75783C22.0478 3.65156 21.9443 3.5444 21.8416 3.43661ZM39.5523 2.79132C39.5327 2.89423 39.5131 2.99664 39.4939 3.09936C39.6681 3.03566 39.6732 2.91543 39.6417 2.76235C39.6118 2.77185 39.5823 2.78168 39.5523 2.79132ZM41.637 3.37219C41.5826 3.33571 41.5927 3.41656 41.5869 3.41324C41.4464 3.33066 41.4347 3.29022 41.2337 3.28985C41.2055 3.30233 41.1774 3.31599 41.149 3.32921C41.1809 3.54495 41.2727 3.45941 41.4235 3.62146C41.4089 3.54802 41.3945 3.47413 41.3801 3.39961C41.4772 3.44299 41.5741 3.4858 41.6713 3.52866C41.6888 3.51261 41.7063 3.4968 41.7238 3.48084C41.695 3.44517 41.666 3.40585 41.637 3.37219ZM51.2534 5.44299C51.3488 5.4056 51.4445 5.36799 51.5398 5.33033C51.5365 5.31301 51.533 5.29566 51.5298 5.2784C51.4375 5.33249 51.3451 5.38747 51.2534 5.44299ZM19.7264 3.20646C19.708 3.24321 19.6898 3.28028 19.6722 3.31827C19.686 3.26992 19.7048 3.23436 19.7264 3.20646ZM1.8498 5.35284C1.71572 5.25678 1.56328 5.35833 1.43344 5.35434C1.51357 5.76621 1.81351 5.59933 1.96783 5.82912C1.97333 5.75246 1.90643 5.39324 1.8498 5.35284ZM29.6864 5.91717C29.7418 5.82382 29.7969 5.73124 29.8518 5.63838C29.8526 5.63875 29.8534 5.63913 29.8542 5.6395L29.6452 5.64361C29.7151 5.63434 29.7853 5.62552 29.8555 5.61597C29.8322 5.53445 29.8086 5.45227 29.7853 5.37079C29.69 5.43953 29.6283 5.45145 29.5781 5.42928L29.9128 5.4227C29.8583 5.34074 29.8938 5.18707 29.8399 5.00658C29.7887 5.3109 29.7372 5.61418 29.6864 5.91717ZM54.2292 4.11673C54.0226 4.20618 53.954 4.24889 54.0822 4.2261C54.1529 4.18936 54.2242 4.15287 54.2953 4.11703C54.2732 4.11714 54.251 4.1171 54.2292 4.11673ZM15.622 3.13192C15.4603 3.30465 15.37 2.79217 15.2368 3.10764C15.3503 3.18706 15.4639 3.2669 15.5768 3.34509C15.5916 3.27411 15.6071 3.20266 15.622 3.13192ZM25.0369 3.25835C24.9983 3.09634 24.6793 3.70705 24.5967 3.15626C24.5067 3.28533 24.4372 3.41435 24.3548 3.54377C24.3712 3.38099 24.3848 3.21478 24.4023 3.05283C24.4021 3.05278 24.402 3.05274 24.4019 3.05269C24.1942 3.04417 24.2667 3.27949 24.2177 3.44321C24.1971 3.5112 24.0841 3.35294 24.0887 3.51614C24.0971 3.79603 24.4279 3.73421 24.345 4.04418C24.27 3.91351 24.047 3.94098 24.0499 4.16618C24.0533 4.4121 24.3452 4.08354 24.4145 4.30533C24.3759 3.76255 24.6895 4.0185 24.6285 4.40528C24.9153 4.17524 24.7551 4.00402 24.5382 3.95512C24.7467 3.70336 24.5127 3.80402 24.5465 3.55273C24.7199 3.4473 25.1465 3.70923 25.0369 3.25835ZM34.3073 3.94103C34.1673 3.99549 33.9058 3.94359 33.8606 4.14282C33.8346 4.25961 34.0836 4.26963 33.9775 4.47245C34.1124 4.41464 34.1254 4.34454 34.0588 4.2154C34.0856 4.18965 34.113 4.16425 34.1399 4.13905C34.163 4.16121 34.1863 4.18286 34.2094 4.20492C34.2087 4.14425 34.2083 4.08411 34.2073 4.02379C34.2447 4.02497 34.2825 4.026 34.32 4.02749C34.3153 3.9985 34.3145 3.97233 34.3073 3.94103ZM10.2837 4.00899C10.3242 3.99896 10.3643 3.98901 10.4047 3.97813C10.3884 3.90981 10.3708 3.83874 10.3536 3.76856C10.3403 3.71304 10.3271 3.65751 10.3138 3.60197C10.3718 3.79932 10.6239 4.09961 10.6701 3.87332C10.6935 3.76022 10.5346 3.39542 10.6995 3.30334C10.5751 3.34162 10.4657 3.41096 10.3474 3.46191C10.3392 3.34705 10.3305 3.23111 10.3224 3.1164C10.3223 3.11625 10.3222 3.11609 10.3221 3.11593C10.2766 3.09631 10.2303 3.07546 10.1848 3.05571C10.2176 3.37328 10.2508 3.69062 10.2837 4.00899ZM39.492 2.55684C39.4829 2.55918 39.4742 2.56149 39.4659 2.56379L39.2955 2.53101L39.2069 2.56734C39.1112 2.67571 39.0887 2.73318 39.189 2.84208C39.1891 2.8421 39.1893 2.84211 39.1895 2.84214C39.2093 2.79548 39.2293 2.74902 39.2493 2.70276L39.3102 2.6778L39.4272 2.70033C39.4527 2.68351 39.4782 2.66676 39.5036 2.65009C39.4998 2.61913 39.4961 2.58803 39.492 2.55684ZM18.3413 1.95534C18.277 2.67581 18.458 2.65958 18.5648 2.45354L18.8023 2.46492C18.9194 2.37421 19.041 2.20247 19.0323 2.04138C19.0318 2.03216 18.9771 2.03382 18.9218 2.02289L18.4881 2.00213C18.4306 2.01604 18.3666 2.01754 18.3413 1.95534ZM29.3022 5.52655C29.3836 5.54254 29.4651 5.55927 29.5469 5.57548C29.5551 5.47194 29.5628 5.36842 29.571 5.26449C29.4817 5.35099 29.3919 5.43867 29.3022 5.52655ZM53.2998 4.43593C53.2065 4.43928 52.9916 4.50565 52.9041 4.57936C52.9594 4.56271 53.0147 4.5459 53.0699 4.52893C52.9703 4.57211 52.8721 4.61555 52.7718 4.6594C52.7858 4.70715 52.8918 4.63413 53.0731 4.57564C53.1015 4.56733 53.2968 4.54655 53.3409 4.48446C53.3498 4.47217 53.1619 4.54098 53.2814 4.46706C53.2242 4.48758 53.1755 4.50719 53.1217 4.52722C53.1136 4.51878 53.1055 4.51028 53.097 4.50193C53.1648 4.48004 53.2321 4.45818 53.2998 4.43593ZM33.4743 4.2004C33.2719 4.24272 33.2797 4.35294 33.296 4.54844C33.3812 4.50031 33.4667 4.45272 33.5521 4.40507C33.526 4.33708 33.5005 4.26887 33.4743 4.2004ZM51.578 5.08852C51.4699 5.12223 51.5294 5.13877 51.4899 5.16179C51.3408 5.24932 51.2213 5.26718 51.0706 5.34554C51.078 5.33431 51.0848 5.32391 51.092 5.3131C51.0919 5.31315 51.0917 5.31321 51.0916 5.31326C50.3305 5.57274 50.7609 5.50855 51.2001 5.31517C51.2162 5.32441 51.2319 5.33375 51.248 5.34274C51.4369 5.23831 51.612 5.14407 51.578 5.08852ZM21.3866 2.65226C21.3923 2.59643 21.5579 2.2819 21.3755 2.39694C21.1312 2.85738 21.3792 2.66704 21.3736 2.8698C21.3229 2.90585 21.2716 2.94052 21.2212 2.97699C21.4108 3.18173 21.4754 3.07474 21.4898 2.69147C21.4904 2.66554 21.3811 2.70781 21.3866 2.65226ZM19.9666 1.95231C19.731 2.69925 20.1094 2.4428 20.1618 2.20749C20.1249 2.18621 20.0598 2.30437 20.0331 2.23545C20.0061 2.16633 20.043 1.98688 19.9666 1.95231ZM28.1015 4.61159C28.0938 4.60661 28.0771 4.33183 28.0327 4.5294C28.0121 5.02202 28.3024 4.78674 28.3085 4.61736C28.2371 4.6041 28.1723 4.65904 28.1016 4.61097C28.1016 4.61117 28.1015 4.61138 28.1015 4.61159ZM54.5613 3.9332C54.557 3.93356 54.3484 4.0028 54.3254 4.02104C54.3076 4.03864 54.3011 4.05289 54.289 4.06908C54.3975 4.01586 54.6279 3.93342 54.5609 3.93336C54.5611 3.93331 54.5612 3.93325 54.5613 3.9332Z" fill="#CEAF6E"/>
</svg>
