<svg width="63" height="63" viewBox="0 0 63 63" fill="none" xmlns="http://www.w3.org/2000/svg">
<g clip-path="url(#clip0_1676_873)">
<mask id="mask0_1676_873" style="mask-type:luminance" maskUnits="userSpaceOnUse" x="0" y="0" width="63" height="63">
<path d="M62.3356 0H0V62.3356H62.3356V0Z" fill="white"/>
</mask>
<g mask="url(#mask0_1676_873)">
<path fill-rule="evenodd" clip-rule="evenodd" d="M18.239 7.82251C16.1724 7.82251 14.4973 9.49442 14.4973 11.5572C14.4973 13.6191 16.1724 15.2919 18.239 15.2919C20.3056 15.2919 21.9807 13.6191 21.9807 11.5572C21.9807 9.49442 20.3056 7.82251 18.239 7.82251ZM19.0041 35.2282C13.8395 37.4356 12.1002 31.9289 12.556 26.5865C12.7204 23.9578 12.9178 22.7197 13.3234 20.381C14.1488 17.5851 15.8584 16.4205 19.2774 17.4374C24.4491 18.3636 29.1595 19.003 35.646 18.7341C37.9389 18.552 38.0619 21.2416 35.7737 21.4895C30.0577 22.282 25.3425 22.4938 21.2532 22.3406C20.2866 24.7557 20.3687 26.6385 20.4664 28.8775C20.4785 29.1544 20.4908 29.4367 20.5014 29.7264C31.0066 26.0395 32.5133 34.3355 33.4935 39.7327C33.6494 40.591 33.7919 41.3759 33.9552 42.0278L29.5597 43.6645C29.3141 42.4595 29.169 41.2563 29.0322 40.1221C28.4098 34.9613 27.9593 31.2253 19.0041 35.2282ZM36.0438 24.1782C34.4831 24.136 34.4588 22.1436 36.0438 22.0881H52.1829V24.1782H36.0438ZM47.1256 37.1738C35.4064 43.7115 24.7694 46.5769 14.0642 49.6754L15.347 51.8311C26.1947 48.8007 37.0454 45.7225 48.0974 39.4265L47.1256 37.1738Z" fill="url(#paint0_linear_1676_873)"/>
</g>
</g>
<defs>
<linearGradient id="paint0_linear_1676_873" x1="32.3346" y1="7.82251" x2="32.3346" y2="51.8311" gradientUnits="userSpaceOnUse">
<stop stop-color="#106BD8"/>
<stop offset="0.519231" stop-color="#083872"/>
</linearGradient>
<clipPath id="clip0_1676_873">
<rect width="62.3356" height="62.3356" fill="white"/>
</clipPath>
</defs>
</svg>
