<svg width="24" height="24" viewBox="0 0 24 24" fill="none" xmlns="http://www.w3.org/2000/svg">
<g clip-path="url(#clip0_1727_9091)">
<path d="M10.5 15L15 12L10.5 9V15ZM19.5 0H4.5C3.30653 0 2.16193 0.474106 1.31802 1.31802C0.474106 2.16193 0 3.30653 0 4.5L0 19.5C0 20.6935 0.474106 21.8381 1.31802 22.682C2.16193 23.5259 3.30653 24 4.5 24H19.5C20.6935 24 21.8381 23.5259 22.682 22.682C23.5259 21.8381 24 20.6935 24 19.5V4.5C24 3.30653 23.5259 2.16193 22.682 1.31802C21.8381 0.474106 20.6935 0 19.5 0ZM19.3725 14.6865C19.2915 15.6855 18.534 16.9605 17.472 17.145C14.0775 17.4075 10.0485 17.376 6.5295 17.145C5.4315 17.007 4.71 15.684 4.629 14.6865C4.458 12.5895 4.458 11.3955 4.629 9.2985C4.71 8.301 5.4495 6.9855 6.5295 6.8655C10.008 6.573 14.0565 6.636 17.472 6.8655C18.696 6.9105 19.2915 8.169 19.3725 9.168C19.542 11.265 19.542 12.5895 19.3725 14.6865Z" fill="#CEAF6E"/>
</g>
<defs>
<clipPath id="clip0_1727_9091">
<rect width="24" height="24" fill="white"/>
</clipPath>
</defs>
</svg>
